<svg width="301" height="268" viewBox="0 0 301 268" fill="none" xmlns="http://www.w3.org/2000/svg">
<path d="M124.865 10.112L128.225 7.284C128.207 7.52667 128.197 7.76 128.197 7.984V21.312H123.885V24H135.169V21.312H131.277V3.252H128.757L123.157 8.04L124.865 10.112ZM152.437 24V21.256H145.269C144.821 21.256 144.364 21.2933 143.897 21.368C143.449 21.4427 143.01 21.536 142.581 21.648L147.845 16.328C148.368 15.8053 148.881 15.2733 149.385 14.732C149.889 14.1907 150.337 13.6213 150.729 13.024C151.14 12.408 151.466 11.764 151.709 11.092C151.952 10.42 152.073 9.692 152.073 8.908C152.073 7.97467 151.905 7.144 151.569 6.416C151.233 5.688 150.776 5.08133 150.197 4.596C149.637 4.092 148.974 3.71867 148.209 3.476C147.444 3.21467 146.622 3.084 145.745 3.084C143.822 3.084 142.245 3.60667 141.013 4.652C139.8 5.67867 139.062 7.12533 138.801 8.992L141.881 9.552C141.844 8.992 141.909 8.47867 142.077 8.012C142.245 7.54533 142.497 7.144 142.833 6.808C143.169 6.472 143.57 6.21067 144.037 6.024C144.504 5.81867 145.017 5.716 145.577 5.716C146.566 5.716 147.313 5.94 147.817 6.388C148.34 6.81733 148.666 7.35867 148.797 8.012C148.946 8.64667 148.937 9.33733 148.769 10.084C148.601 10.8307 148.34 11.5213 147.985 12.156C147.612 12.7347 147.21 13.2667 146.781 13.752C146.352 14.2373 145.894 14.7227 145.409 15.208L138.437 22.208V24H152.437ZM173.289 12.744H168.529V14.536H173.289V15.628H176.173V0.871999H173.289V12.744ZM163.293 8.88C164.226 8.88 165.075 8.796 165.841 8.628C166.625 8.44133 167.287 8.18933 167.829 7.872C168.389 7.536 168.818 7.13467 169.117 6.668C169.415 6.20133 169.565 5.67867 169.565 5.1C169.565 4.52133 169.415 3.99867 169.117 3.532C168.818 3.06533 168.389 2.67333 167.829 2.356C167.287 2.02 166.625 1.768 165.841 1.6C165.075 1.41333 164.226 1.32 163.293 1.32C162.341 1.32 161.473 1.41333 160.689 1.6C159.923 1.768 159.261 2.02 158.701 2.356C158.159 2.67333 157.739 3.06533 157.441 3.532C157.142 3.99867 156.993 4.52133 156.993 5.1C156.993 5.67867 157.142 6.20133 157.441 6.668C157.739 7.13467 158.159 7.536 158.701 7.872C159.261 8.18933 159.923 8.44133 160.689 8.628C161.473 8.796 162.341 8.88 163.293 8.88ZM163.293 3.252C164.375 3.252 165.234 3.41067 165.869 3.728C166.522 4.04533 166.849 4.50267 166.849 5.1C166.849 5.69733 166.522 6.15467 165.869 6.472C165.234 6.78933 164.375 6.948 163.293 6.948C162.173 6.948 161.295 6.78933 160.661 6.472C160.026 6.15467 159.709 5.69733 159.709 5.1C159.709 4.50267 160.026 4.04533 160.661 3.728C161.295 3.41067 162.173 3.252 163.293 3.252ZM161.697 12.1V15.712H164.609V11.988C165.785 11.932 166.961 11.8573 168.137 11.764C169.331 11.652 170.517 11.512 171.693 11.344L171.497 9.524C170.153 9.65467 168.771 9.75733 167.353 9.832C165.953 9.90667 164.553 9.972 163.153 10.028C161.753 10.0653 160.371 10.0933 159.009 10.112C157.665 10.112 156.386 10.112 155.173 10.112L155.509 12.184C156.461 12.184 157.45 12.184 158.477 12.184C159.503 12.1653 160.577 12.1373 161.697 12.1ZM176.901 23.888H161.809V22.04H176.173V16.524H158.897V18.512H173.317V20.192H158.953V25.932H176.901V23.888Z" fill="#222222"/>
<rect y="141" width="43" height="60" fill="white"/>
<rect y="48" width="43" height="60" fill="white"/>
<rect x="43" y="48" width="43" height="60" fill="white"/>
<rect x="86" y="48" width="43" height="60" fill="white"/>
<rect x="129" y="48" width="43" height="60" fill="white"/>
<rect x="172" y="48" width="43" height="60" fill="white"/>
<rect x="215" y="48" width="43" height="60" fill="white"/>
<rect x="258" y="48" width="43" height="60" fill="white"/>
<rect y="108" width="43" height="32" fill="white"/>
<rect x="43" y="108" width="43" height="32" fill="white"/>
<rect x="86" y="108" width="43" height="32" fill="white"/>
<rect x="129" y="108" width="43" height="32" fill="white"/>
<rect x="172" y="108" width="43" height="32" fill="white"/>
<rect x="215" y="108" width="43" height="32" fill="white"/>
<rect x="258" y="108" width="43" height="32" fill="white"/>
<rect y="140" width="43" height="32" fill="white"/>
<rect x="43" y="140" width="43" height="32" fill="white"/>
<rect x="86" y="140" width="43" height="32" fill="white"/>
<rect x="129" y="140" width="43" height="32" fill="white"/>
<rect x="172" y="140" width="43" height="32" fill="white"/>
<rect x="215" y="140" width="43" height="32" fill="white"/>
<rect x="258" y="140" width="43" height="32" fill="white"/>
<rect y="172" width="43" height="32" fill="white"/>
<rect x="43" y="172" width="43" height="32" fill="white"/>
<rect x="86" y="172" width="43" height="32" fill="white"/>
<rect x="129" y="172" width="43" height="32" fill="white"/>
<rect x="172" y="172" width="43" height="32" fill="white"/>
<rect x="215" y="172" width="43" height="32" fill="white"/>
<rect x="258" y="172" width="43" height="32" fill="white"/>
<rect y="204" width="43" height="32" fill="white"/>
<rect x="43" y="204" width="43" height="32" fill="white"/>
<rect x="86" y="204" width="43" height="32" fill="white"/>
<rect x="129" y="204" width="43" height="32" fill="white"/>
<rect x="172" y="204" width="43" height="32" fill="white"/>
<rect x="215" y="204" width="43" height="32" fill="white"/>
<rect x="258" y="204" width="43" height="32" fill="white"/>
<rect y="236" width="43" height="32" fill="white"/>
<rect x="43" y="236" width="43" height="32" fill="white"/>
<rect x="86" y="236" width="43" height="32" fill="white"/>
<rect x="129" y="236" width="43" height="32" fill="white"/>
<rect x="172" y="236" width="43" height="32" fill="white"/>
<rect x="215" y="236" width="43" height="32" fill="white"/>
<rect x="258" y="236" width="43" height="32" fill="white"/>
<path d="M68.4206 70.848V77.664H65.5726V78.528H68.4206V79.28H69.7326V70.848H68.4206ZM62.5806 75.408C63.114 75.408 63.594 75.36 64.0206 75.264C64.458 75.168 64.8313 75.0293 65.1406 74.848C65.45 74.656 65.69 74.432 65.8606 74.176C66.0313 73.9093 66.1166 73.6107 66.1166 73.28C66.1166 72.9387 66.0313 72.6347 65.8606 72.368C65.69 72.1013 65.45 71.8773 65.1406 71.696C64.8313 71.5147 64.458 71.376 64.0206 71.28C63.594 71.1733 63.114 71.12 62.5806 71.12C62.058 71.12 61.578 71.1733 61.1406 71.28C60.7033 71.376 60.33 71.5147 60.0206 71.696C59.7113 71.8773 59.4713 72.1013 59.3006 72.368C59.13 72.6347 59.0446 72.9387 59.0446 73.28C59.0446 73.6107 59.13 73.9093 59.3006 74.176C59.4713 74.432 59.7113 74.656 60.0206 74.848C60.33 75.0293 60.7033 75.168 61.1406 75.264C61.578 75.36 62.058 75.408 62.5806 75.408ZM62.5806 72.032C63.2846 72.032 63.8446 72.144 64.2606 72.368C64.6766 72.592 64.8846 72.896 64.8846 73.28C64.8846 73.6533 64.6766 73.952 64.2606 74.176C63.8446 74.4 63.2846 74.512 62.5806 74.512C61.8766 74.512 61.3166 74.4 60.9006 74.176C60.4846 73.952 60.2766 73.6533 60.2766 73.28C60.2766 72.896 60.4846 72.592 60.9006 72.368C61.3166 72.144 61.8766 72.032 62.5806 72.032ZM61.8446 77.184V79.328H63.1566V77.12C63.8606 77.0773 64.5593 77.0293 65.2526 76.976C65.9566 76.912 66.6606 76.832 67.3646 76.736L67.2846 75.872C66.5166 75.9573 65.7273 76.0267 64.9166 76.08C64.106 76.1227 63.3006 76.16 62.5006 76.192C61.7006 76.2133 60.9113 76.2293 60.1326 76.24C59.3646 76.24 58.634 76.24 57.9406 76.24L58.1006 77.232C59.274 77.232 60.522 77.216 61.8446 77.184ZM70.2286 85.024V84.064H61.4446V82.8H69.7326V79.808H60.1166V80.752H68.4526V81.904H60.1486V85.024H70.2286Z" fill="#222222"/>
<path d="M112.045 78.032H114.285V76.928H112.045V70.832H110.733V85.184H112.045V78.032ZM101.069 73.616H109.645V72.576H106.029V70.848H104.717V72.576H101.069V73.616ZM106.029 81.264V79.744C106.861 79.6373 107.522 79.3547 108.013 78.896C108.514 78.4267 108.765 77.8347 108.765 77.12C108.765 76.7147 108.679 76.352 108.509 76.032C108.349 75.7013 108.119 75.4187 107.821 75.184C107.522 74.9493 107.165 74.7733 106.749 74.656C106.333 74.528 105.874 74.464 105.373 74.464C104.871 74.464 104.413 74.528 103.997 74.656C103.581 74.7733 103.223 74.9493 102.925 75.184C102.626 75.4187 102.391 75.7013 102.221 76.032C102.061 76.352 101.981 76.7147 101.981 77.12C101.981 77.8347 102.226 78.4267 102.717 78.896C103.218 79.3547 103.885 79.6373 104.717 79.744V81.312C104.013 81.3333 103.33 81.3493 102.669 81.36C102.018 81.36 101.405 81.36 100.829 81.36L101.005 82.464C101.634 82.464 102.311 82.464 103.037 82.464C103.762 82.4533 104.509 82.432 105.277 82.4C106.045 82.3573 106.823 82.2987 107.613 82.224C108.413 82.1387 109.197 82.0267 109.965 81.888L109.885 80.912C109.266 81.008 108.631 81.0827 107.981 81.136C107.33 81.1893 106.679 81.232 106.029 81.264ZM103.229 77.12C103.229 76.608 103.426 76.208 103.821 75.92C104.215 75.6213 104.733 75.472 105.373 75.472C106.013 75.472 106.53 75.6213 106.925 75.92C107.319 76.208 107.517 76.608 107.517 77.12C107.517 77.632 107.319 78.032 106.925 78.32C106.53 78.608 106.013 78.752 105.373 78.752C104.733 78.752 104.215 78.608 103.821 78.32C103.426 78.032 103.229 77.632 103.229 77.12Z" fill="#222222"/>
<path d="M155.797 77.36L156.341 76.304C155.69 76.208 155.055 76.032 154.437 75.776C153.818 75.52 153.263 75.2053 152.773 74.832C152.293 74.4587 151.903 74.0427 151.605 73.584C151.317 73.1253 151.173 72.6453 151.173 72.144V71.344H149.797V72.144C149.797 72.656 149.653 73.1467 149.365 73.616C149.077 74.0747 148.693 74.4907 148.213 74.864C147.733 75.2267 147.183 75.536 146.565 75.792C145.957 76.0373 145.322 76.208 144.661 76.304L145.189 77.36C145.743 77.264 146.287 77.12 146.821 76.928C147.365 76.7253 147.866 76.48 148.325 76.192C148.794 75.904 149.215 75.5787 149.589 75.216C149.962 74.8427 150.261 74.4373 150.485 74C150.719 74.4373 151.023 74.8427 151.397 75.216C151.77 75.5787 152.186 75.904 152.645 76.192C153.114 76.48 153.615 76.7253 154.149 76.928C154.693 77.12 155.242 77.264 155.797 77.36ZM151.109 80H156.981L156.965 78.912H144.005V80H149.797V85.2H151.109V80Z" fill="#222222"/>
<path d="M199.965 79.168V78.112H194.141V76.288H198.301V71.424H188.653V76.288H192.829V78.112H186.973V79.168H199.965ZM197.005 75.248H189.933V72.464H197.005V75.248ZM198.365 80.656H188.429V81.712H197.053V85.2H198.365V80.656Z" fill="#222222"/>
<path d="M243.013 77.936V76.88H240.949C241.141 75.9733 241.253 75.184 241.285 74.512C241.317 73.84 241.333 73.2213 241.333 72.656V71.6H231.637V72.656H240.037C240.037 73.2213 240.015 73.8453 239.973 74.528C239.941 75.2 239.823 75.984 239.621 76.88H229.973V77.936H243.013ZM241.381 79.888H231.589V84.992H241.381V79.888ZM240.085 83.936H232.869V80.944H240.085V83.936Z" fill="#222222"/>
<path d="M286.013 83.408V82.32H280.141V79.36H284.525V78.288H275.981V76.128H284.061V75.088H275.981V73.072H284.381V72H274.653V79.36H278.829V82.32H272.973V83.408H286.013Z" fill="#222222"/>
<path d="M25.4526 78.192H26.7646V70.832H25.4526V78.192ZM22.7326 74.544C22.7326 74.064 22.6366 73.632 22.4446 73.248C22.2633 72.8533 22.0073 72.5173 21.6766 72.24C21.346 71.952 20.9513 71.7333 20.4926 71.584C20.0446 71.424 19.554 71.344 19.0206 71.344C18.4873 71.344 17.9913 71.424 17.5326 71.584C17.0846 71.7333 16.6953 71.952 16.3646 72.24C16.0446 72.5173 15.7886 72.8533 15.5966 73.248C15.4153 73.632 15.3246 74.064 15.3246 74.544C15.3246 75.0133 15.4153 75.4453 15.5966 75.84C15.7886 76.224 16.0446 76.5547 16.3646 76.832C16.6953 77.1093 17.0846 77.328 17.5326 77.488C17.9913 77.6373 18.4873 77.712 19.0206 77.712C19.554 77.712 20.0446 77.6373 20.4926 77.488C20.9513 77.328 21.346 77.1093 21.6766 76.832C22.0073 76.5547 22.2633 76.224 22.4446 75.84C22.6366 75.4453 22.7326 75.0133 22.7326 74.544ZM16.5886 74.544C16.5886 74.2347 16.6473 73.952 16.7646 73.696C16.8926 73.4293 17.0633 73.2053 17.2766 73.024C17.5006 72.832 17.7566 72.6827 18.0446 72.576C18.3433 72.4693 18.6686 72.416 19.0206 72.416C19.3726 72.416 19.698 72.4693 19.9966 72.576C20.2953 72.6827 20.5513 72.832 20.7646 73.024C20.978 73.2053 21.1433 73.4293 21.2606 73.696C21.3886 73.952 21.4526 74.2347 21.4526 74.544C21.4526 74.8427 21.3886 75.1253 21.2606 75.392C21.1433 75.648 20.978 75.872 20.7646 76.064C20.5513 76.2453 20.2953 76.3893 19.9966 76.496C19.698 76.6027 19.3726 76.656 19.0206 76.656C18.6686 76.656 18.3433 76.6027 18.0446 76.496C17.7566 76.3893 17.5006 76.2453 17.2766 76.064C17.0633 75.872 16.8926 75.648 16.7646 75.392C16.6473 75.1253 16.5886 74.8427 16.5886 74.544ZM27.2446 84.992V83.952H18.7966V82.368H26.7646V78.896H17.4686V79.936H25.4686V81.392H17.5006V84.992H27.2446Z" fill="#D62A2A"/>
<circle cx="280" cy="156" r="16" fill="#FFE7E7"/>
<path d="M196.65 130V128.816H194.346V118.208H193.178L190.026 120.928L190.81 121.872L192.938 119.968C192.928 120.021 192.922 120.08 192.922 120.144V128.816H190.314V130H196.65Z" fill="black"/>
<path d="M239.954 130V128.704H235.33C235.128 128.704 234.909 128.72 234.674 128.752C234.45 128.784 234.226 128.832 234.002 128.896L237.282 125.648C237.613 125.317 237.928 124.992 238.226 124.672C238.525 124.341 238.786 124.005 239.01 123.664C239.234 123.312 239.41 122.949 239.538 122.576C239.666 122.203 239.73 121.797 239.73 121.36C239.73 120.837 239.64 120.373 239.458 119.968C239.277 119.563 239.026 119.221 238.706 118.944C238.386 118.656 238.008 118.437 237.57 118.288C237.144 118.139 236.68 118.064 236.178 118.064C235.677 118.064 235.208 118.139 234.77 118.288C234.333 118.427 233.944 118.64 233.602 118.928C233.272 119.205 232.994 119.552 232.77 119.968C232.546 120.373 232.397 120.848 232.322 121.392L233.762 121.632C233.762 121.291 233.821 120.981 233.938 120.704C234.056 120.427 234.216 120.187 234.418 119.984C234.632 119.771 234.882 119.611 235.17 119.504C235.458 119.387 235.768 119.328 236.098 119.328C236.706 119.328 237.213 119.499 237.618 119.84C238.024 120.171 238.237 120.688 238.258 121.392C238.258 121.733 238.205 122.059 238.098 122.368C237.992 122.667 237.842 122.965 237.65 123.264C237.469 123.563 237.245 123.861 236.978 124.16C236.722 124.448 236.44 124.757 236.13 125.088L232.082 128.976V130H239.954Z" fill="black"/>
<path d="M275.37 121.424L276.826 121.664C276.826 121.333 276.885 121.029 277.002 120.752C277.12 120.475 277.28 120.235 277.482 120.032C277.685 119.819 277.93 119.653 278.218 119.536C278.506 119.419 278.816 119.36 279.146 119.36C279.765 119.36 280.266 119.525 280.65 119.856C281.045 120.187 281.242 120.688 281.242 121.36C281.242 121.659 281.194 121.936 281.098 122.192C281.002 122.448 280.842 122.672 280.618 122.864C280.394 123.045 280.101 123.189 279.738 123.296C279.386 123.403 278.954 123.461 278.442 123.472V124.528C279.072 124.528 279.584 124.587 279.978 124.704C280.373 124.811 280.682 124.96 280.906 125.152C281.13 125.344 281.28 125.573 281.354 125.84C281.44 126.107 281.482 126.4 281.482 126.72C281.482 126.976 281.429 127.237 281.322 127.504C281.226 127.771 281.072 128.011 280.858 128.224C280.656 128.437 280.394 128.613 280.074 128.752C279.765 128.88 279.402 128.944 278.986 128.944C278.378 128.944 277.882 128.8 277.498 128.512C277.114 128.213 276.8 127.808 276.554 127.296C276.426 126.987 276.346 126.747 276.314 126.576L275.002 127.12C275.141 127.547 275.306 127.952 275.498 128.336C275.701 128.709 275.957 129.035 276.266 129.312C276.576 129.589 276.949 129.808 277.386 129.968C277.834 130.128 278.373 130.208 279.002 130.208C279.546 130.208 280.058 130.128 280.538 129.968C281.029 129.797 281.45 129.563 281.802 129.264C282.165 128.955 282.448 128.581 282.65 128.144C282.864 127.707 282.97 127.221 282.97 126.688C282.97 125.952 282.773 125.344 282.378 124.864C281.984 124.384 281.402 124.048 280.634 123.856C281.274 123.643 281.776 123.328 282.138 122.912C282.512 122.485 282.698 121.888 282.698 121.12C282.698 120.672 282.613 120.261 282.442 119.888C282.272 119.515 282.032 119.195 281.722 118.928C281.413 118.661 281.045 118.453 280.618 118.304C280.202 118.155 279.738 118.08 279.226 118.08C278.725 118.08 278.256 118.155 277.818 118.304C277.381 118.453 276.992 118.672 276.65 118.96C276.32 119.237 276.042 119.584 275.818 120C275.594 120.416 275.445 120.891 275.37 121.424Z" fill="black"/>
<path d="M25.5144 158.88V157.728H23.7384V150.144H22.3624L16.5864 157.792V158.88H22.4424V162H23.7384V158.88H25.5144ZM22.4424 152.832V157.728H18.1864L22.5064 151.84C22.485 152.011 22.469 152.187 22.4584 152.368C22.4477 152.539 22.4424 152.693 22.4424 152.832Z" fill="#D62A2A"/>
<path d="M154.05 151.216V150.272H146.338V151.52H152.466L151.922 152.416L147.138 162H148.754L154.05 151.216Z" fill="black"/>
<path d="M62.2904 154.64L62.8184 151.568H67.4104V150.224H61.7944L60.8344 155.776L61.7784 156.048C62.1197 155.931 62.445 155.84 62.7544 155.776C63.0744 155.701 63.389 155.664 63.6984 155.664C64.541 155.664 65.197 155.877 65.6664 156.304C66.1357 156.731 66.3704 157.328 66.3704 158.096C66.3704 158.523 66.301 158.907 66.1624 159.248C66.0237 159.589 65.8317 159.877 65.5864 160.112C65.341 160.347 65.0477 160.528 64.7064 160.656C64.365 160.773 63.9917 160.832 63.5864 160.832C63.1064 160.832 62.6424 160.736 62.1944 160.544C61.7464 160.352 61.3464 160.107 60.9944 159.808L60.2104 160.88C60.573 161.221 61.037 161.52 61.6024 161.776C62.1784 162.021 62.8184 162.144 63.5224 162.144C64.1197 162.144 64.6744 162.048 65.1864 161.856C65.709 161.653 66.1624 161.376 66.5464 161.024C66.9304 160.661 67.229 160.224 67.4424 159.712C67.6664 159.2 67.7784 158.635 67.7784 158.016C67.7784 157.504 67.693 157.029 67.5224 156.592C67.3624 156.155 67.1224 155.776 66.8024 155.456C66.4824 155.136 66.0824 154.885 65.6024 154.704C65.133 154.523 64.589 154.432 63.9704 154.432C63.373 154.432 62.813 154.501 62.2904 154.64Z" fill="black"/>
<path d="M194.714 155.888C195.994 155.419 196.634 154.501 196.634 153.136C196.634 152.699 196.544 152.293 196.362 151.92C196.192 151.536 195.946 151.2 195.626 150.912C195.306 150.624 194.922 150.4 194.474 150.24C194.026 150.069 193.536 149.984 193.002 149.984C192.448 149.984 191.946 150.069 191.498 150.24C191.05 150.4 190.666 150.624 190.346 150.912C190.037 151.2 189.797 151.536 189.626 151.92C189.456 152.293 189.37 152.699 189.37 153.136C189.37 153.808 189.53 154.379 189.85 154.848C190.181 155.307 190.65 155.653 191.258 155.888C190.522 156.091 189.952 156.443 189.546 156.944C189.141 157.445 188.938 158.08 188.938 158.848C188.938 159.371 189.034 159.845 189.226 160.272C189.429 160.688 189.706 161.045 190.058 161.344C190.421 161.643 190.853 161.872 191.354 162.032C191.856 162.192 192.405 162.272 193.002 162.272C193.6 162.272 194.144 162.192 194.634 162.032C195.125 161.872 195.546 161.643 195.898 161.344C196.261 161.045 196.538 160.688 196.73 160.272C196.933 159.845 197.034 159.371 197.034 158.848C197.034 158.08 196.832 157.445 196.426 156.944C196.032 156.443 195.461 156.091 194.714 155.888ZM193.002 151.152C193.365 151.152 193.68 151.205 193.946 151.312C194.213 151.419 194.432 151.563 194.602 151.744C194.784 151.925 194.917 152.144 195.002 152.4C195.098 152.645 195.146 152.907 195.146 153.184C195.146 153.451 195.109 153.712 195.034 153.968C194.96 154.224 194.837 154.453 194.666 154.656C194.496 154.859 194.272 155.024 193.994 155.152C193.728 155.269 193.397 155.328 193.002 155.328C192.597 155.328 192.256 155.269 191.978 155.152C191.701 155.024 191.477 154.859 191.306 154.656C191.136 154.453 191.013 154.224 190.938 153.968C190.864 153.712 190.826 153.451 190.826 153.184C190.826 152.907 190.869 152.645 190.954 152.4C191.05 152.144 191.184 151.925 191.354 151.744C191.536 151.563 191.765 151.419 192.042 151.312C192.32 151.205 192.64 151.152 193.002 151.152ZM193.002 161.072C192.202 161.072 191.584 160.869 191.146 160.464C190.709 160.048 190.49 159.504 190.49 158.832C190.49 158.416 190.554 158.064 190.682 157.776C190.821 157.477 191.008 157.237 191.242 157.056C191.477 156.864 191.744 156.725 192.042 156.64C192.352 156.544 192.672 156.496 193.002 156.496C193.333 156.496 193.648 156.544 193.946 156.64C194.245 156.725 194.506 156.864 194.73 157.056C194.965 157.237 195.146 157.477 195.274 157.776C195.413 158.064 195.482 158.416 195.482 158.832C195.482 159.504 195.269 160.048 194.842 160.464C194.416 160.869 193.802 161.072 193.002 161.072Z" fill="black"/>
<path d="M106.09 154.64L109.626 150.208H107.786L104.522 154.608C104.01 155.28 103.637 155.915 103.402 156.512C103.178 157.099 103.066 157.653 103.066 158.176C103.066 158.784 103.157 159.339 103.338 159.84C103.53 160.331 103.797 160.752 104.138 161.104C104.48 161.456 104.89 161.728 105.37 161.92C105.861 162.112 106.405 162.208 107.002 162.208C107.6 162.208 108.149 162.112 108.65 161.92C109.152 161.717 109.578 161.44 109.93 161.088C110.293 160.736 110.57 160.325 110.762 159.856C110.965 159.387 111.066 158.88 111.066 158.336C111.066 157.771 110.97 157.269 110.778 156.832C110.597 156.395 110.346 156.027 110.026 155.728C109.706 155.419 109.333 155.189 108.906 155.04C108.48 154.88 108.026 154.8 107.546 154.8C107.152 154.8 106.789 154.853 106.458 154.96C106.128 155.067 105.818 155.216 105.53 155.408C105.584 155.344 105.653 155.248 105.738 155.12C105.834 154.992 105.952 154.832 106.09 154.64ZM106.97 160.976C106.17 160.976 105.557 160.741 105.13 160.272C104.704 159.803 104.49 159.184 104.49 158.416C104.49 158.085 104.549 157.771 104.666 157.472C104.794 157.173 104.97 156.912 105.194 156.688C105.418 156.453 105.685 156.272 105.994 156.144C106.314 156.005 106.672 155.936 107.066 155.936C107.429 155.936 107.765 155.995 108.074 156.112C108.384 156.229 108.65 156.395 108.874 156.608C109.098 156.821 109.274 157.088 109.402 157.408C109.53 157.717 109.594 158.064 109.594 158.448C109.594 158.811 109.53 159.147 109.402 159.456C109.274 159.765 109.093 160.032 108.858 160.256C108.634 160.48 108.357 160.656 108.026 160.784C107.706 160.912 107.354 160.976 106.97 160.976Z" fill="black"/>
<path d="M237.074 157.344L233.426 162H235.266L238.482 157.568C238.93 156.949 239.277 156.352 239.522 155.776C239.768 155.2 239.89 154.565 239.89 153.872C239.89 153.296 239.8 152.773 239.618 152.304C239.437 151.824 239.176 151.413 238.834 151.072C238.504 150.731 238.104 150.464 237.634 150.272C237.165 150.08 236.642 149.984 236.066 149.984C235.48 149.984 234.941 150.085 234.45 150.288C233.97 150.48 233.554 150.747 233.202 151.088C232.85 151.429 232.573 151.829 232.37 152.288C232.178 152.747 232.082 153.237 232.082 153.76C232.082 154.315 232.173 154.805 232.354 155.232C232.536 155.659 232.776 156.021 233.074 156.32C233.384 156.608 233.741 156.827 234.146 156.976C234.562 157.125 235 157.2 235.458 157.2C236.333 157.2 237.085 156.949 237.714 156.448C237.661 156.523 237.581 156.635 237.474 156.784C237.378 156.933 237.245 157.12 237.074 157.344ZM233.57 153.648C233.57 152.933 233.794 152.357 234.242 151.92C234.701 151.472 235.304 151.248 236.05 151.248C236.392 151.248 236.712 151.307 237.01 151.424C237.309 151.531 237.565 151.691 237.778 151.904C237.992 152.107 238.157 152.363 238.274 152.672C238.402 152.971 238.466 153.312 238.466 153.696C238.466 154.005 238.408 154.304 238.29 154.592C238.184 154.869 238.018 155.12 237.794 155.344C237.581 155.557 237.32 155.728 237.01 155.856C236.701 155.984 236.344 156.048 235.938 156.048C235.202 156.048 234.621 155.845 234.194 155.44C233.778 155.024 233.57 154.427 233.57 153.648Z" fill="black"/>
<path d="M278.885 162V160.816H276.581V150.208H275.413L272.261 152.928L273.045 153.872L275.173 151.968C275.162 152.021 275.157 152.08 275.157 152.144V160.816H272.549V162H278.885ZM289.104 156.16C289.104 155.115 288.992 154.213 288.768 153.456C288.544 152.688 288.24 152.053 287.856 151.552C287.472 151.051 287.019 150.683 286.496 150.448C285.973 150.203 285.408 150.08 284.8 150.08C284.192 150.08 283.627 150.203 283.104 150.448C282.581 150.683 282.123 151.051 281.728 151.552C281.344 152.053 281.04 152.688 280.816 153.456C280.603 154.213 280.496 155.115 280.496 156.16C280.496 157.195 280.603 158.096 280.816 158.864C281.04 159.621 281.344 160.251 281.728 160.752C282.123 161.253 282.581 161.627 283.104 161.872C283.627 162.107 284.192 162.224 284.8 162.224C285.408 162.224 285.973 162.107 286.496 161.872C287.019 161.627 287.472 161.253 287.856 160.752C288.24 160.251 288.544 159.621 288.768 158.864C288.992 158.096 289.104 157.195 289.104 156.16ZM287.632 156.16C287.632 157.067 287.552 157.835 287.392 158.464C287.243 159.083 287.035 159.584 286.768 159.968C286.512 160.352 286.213 160.629 285.872 160.8C285.531 160.96 285.173 161.04 284.8 161.04C284.427 161.04 284.069 160.96 283.728 160.8C283.387 160.629 283.088 160.352 282.832 159.968C282.576 159.584 282.368 159.083 282.208 158.464C282.059 157.835 281.984 157.067 281.984 156.16C281.984 155.243 282.059 154.475 282.208 153.856C282.368 153.227 282.576 152.725 282.832 152.352C283.088 151.968 283.387 151.696 283.728 151.536C284.069 151.365 284.427 151.28 284.8 151.28C285.173 151.28 285.531 151.365 285.872 151.536C286.213 151.696 286.512 151.968 286.768 152.352C287.035 152.725 287.243 153.227 287.392 153.856C287.552 154.475 287.632 155.243 287.632 156.16Z" fill="black"/>
<path d="M20.8848 194V192.816H18.5808V182.208H17.4128L14.2608 184.928L15.0448 185.872L17.1727 183.968C17.1621 184.021 17.1568 184.08 17.1568 184.144V192.816H14.5488V194H20.8848ZM30.416 194V192.816H28.112V182.208H26.944L23.792 184.928L24.576 185.872L26.704 183.968C26.6933 184.021 26.688 184.08 26.688 184.144V192.816H24.08V194H30.416Z" fill="#D62A2A"/>
<path d="M149.885 194V192.816H147.581V182.208H146.413L143.261 184.928L144.045 185.872L146.173 183.968C146.162 184.021 146.157 184.08 146.157 184.144V192.816H143.549V194H149.885ZM160.28 190.88V189.728H158.504V182.144H157.128L151.352 189.792V190.88H157.208V194H158.504V190.88H160.28ZM157.208 184.832V189.728H152.952L157.272 183.84C157.251 184.011 157.235 184.187 157.224 184.368C157.213 184.539 157.208 184.693 157.208 184.832Z" fill="black"/>
<path d="M63.8848 194V192.816H61.5808V182.208H60.4128L57.2608 184.928L58.0448 185.872L60.1727 183.968C60.1621 184.021 60.1568 184.08 60.1568 184.144V192.816H57.5488V194H63.8848ZM73.72 194V192.704H69.096C68.8933 192.704 68.6747 192.72 68.44 192.752C68.216 192.784 67.992 192.832 67.768 192.896L71.048 189.648C71.3787 189.317 71.6933 188.992 71.992 188.672C72.2907 188.341 72.552 188.005 72.776 187.664C73 187.312 73.176 186.949 73.304 186.576C73.432 186.203 73.496 185.797 73.496 185.36C73.496 184.837 73.4053 184.373 73.224 183.968C73.0427 183.563 72.792 183.221 72.472 182.944C72.152 182.656 71.7733 182.437 71.336 182.288C70.9093 182.139 70.4453 182.064 69.944 182.064C69.4427 182.064 68.9733 182.139 68.536 182.288C68.0987 182.427 67.7093 182.64 67.368 182.928C67.0373 183.205 66.76 183.552 66.536 183.968C66.312 184.373 66.1627 184.848 66.088 185.392L67.528 185.632C67.528 185.291 67.5867 184.981 67.704 184.704C67.8213 184.427 67.9813 184.187 68.184 183.984C68.3973 183.771 68.648 183.611 68.936 183.504C69.224 183.387 69.5333 183.328 69.864 183.328C70.472 183.328 70.9787 183.499 71.384 183.84C71.7893 184.171 72.0027 184.688 72.024 185.392C72.024 185.733 71.9707 186.059 71.864 186.368C71.7573 186.667 71.608 186.965 71.416 187.264C71.2347 187.563 71.0107 187.861 70.744 188.16C70.488 188.448 70.2053 188.757 69.896 189.088L65.848 192.976V194H73.72Z" fill="black"/>
<path d="M191.885 194V192.816H189.581V182.208H188.413L185.261 184.928L186.045 185.872L188.173 183.968C188.162 184.021 188.157 184.08 188.157 184.144V192.816H185.549V194H191.885ZM196.056 186.64L196.584 183.568H201.176V182.224H195.56L194.6 187.776L195.544 188.048C195.885 187.931 196.211 187.84 196.52 187.776C196.84 187.701 197.155 187.664 197.464 187.664C198.307 187.664 198.963 187.877 199.432 188.304C199.901 188.731 200.136 189.328 200.136 190.096C200.136 190.523 200.067 190.907 199.928 191.248C199.789 191.589 199.597 191.877 199.352 192.112C199.107 192.347 198.813 192.528 198.472 192.656C198.131 192.773 197.757 192.832 197.352 192.832C196.872 192.832 196.408 192.736 195.96 192.544C195.512 192.352 195.112 192.107 194.76 191.808L193.976 192.88C194.339 193.221 194.803 193.52 195.368 193.776C195.944 194.021 196.584 194.144 197.288 194.144C197.885 194.144 198.44 194.048 198.952 193.856C199.475 193.653 199.928 193.376 200.312 193.024C200.696 192.661 200.995 192.224 201.208 191.712C201.432 191.2 201.544 190.635 201.544 190.016C201.544 189.504 201.459 189.029 201.288 188.592C201.128 188.155 200.888 187.776 200.568 187.456C200.248 187.136 199.848 186.885 199.368 186.704C198.899 186.523 198.355 186.432 197.736 186.432C197.139 186.432 196.579 186.501 196.056 186.64Z" fill="black"/>
<path d="M106.885 194V192.816H104.581V182.208H103.413L100.261 184.928L101.045 185.872L103.173 183.968C103.162 184.021 103.157 184.08 103.157 184.144V192.816H100.549V194H106.885ZM109.136 185.424L110.592 185.664C110.592 185.333 110.651 185.029 110.768 184.752C110.885 184.475 111.045 184.235 111.248 184.032C111.451 183.819 111.696 183.653 111.984 183.536C112.272 183.419 112.581 183.36 112.912 183.36C113.531 183.36 114.032 183.525 114.416 183.856C114.811 184.187 115.008 184.688 115.008 185.36C115.008 185.659 114.96 185.936 114.864 186.192C114.768 186.448 114.608 186.672 114.384 186.864C114.16 187.045 113.867 187.189 113.504 187.296C113.152 187.403 112.72 187.461 112.208 187.472V188.528C112.837 188.528 113.349 188.587 113.744 188.704C114.139 188.811 114.448 188.96 114.672 189.152C114.896 189.344 115.045 189.573 115.12 189.84C115.205 190.107 115.248 190.4 115.248 190.72C115.248 190.976 115.195 191.237 115.088 191.504C114.992 191.771 114.837 192.011 114.624 192.224C114.421 192.437 114.16 192.613 113.84 192.752C113.531 192.88 113.168 192.944 112.752 192.944C112.144 192.944 111.648 192.8 111.264 192.512C110.88 192.213 110.565 191.808 110.32 191.296C110.192 190.987 110.112 190.747 110.08 190.576L108.768 191.12C108.907 191.547 109.072 191.952 109.264 192.336C109.467 192.709 109.723 193.035 110.032 193.312C110.341 193.589 110.715 193.808 111.152 193.968C111.6 194.128 112.139 194.208 112.768 194.208C113.312 194.208 113.824 194.128 114.304 193.968C114.795 193.797 115.216 193.563 115.568 193.264C115.931 192.955 116.213 192.581 116.416 192.144C116.629 191.707 116.736 191.221 116.736 190.688C116.736 189.952 116.539 189.344 116.144 188.864C115.749 188.384 115.168 188.048 114.4 187.856C115.04 187.643 115.541 187.328 115.904 186.912C116.277 186.485 116.464 185.888 116.464 185.12C116.464 184.672 116.379 184.261 116.208 183.888C116.037 183.515 115.797 183.195 115.488 182.928C115.179 182.661 114.811 182.453 114.384 182.304C113.968 182.155 113.504 182.08 112.992 182.08C112.491 182.08 112.021 182.155 111.584 182.304C111.147 182.453 110.757 182.672 110.416 182.96C110.085 183.237 109.808 183.584 109.584 184C109.36 184.416 109.211 184.891 109.136 185.424Z" fill="black"/>
<path d="M234.885 194V192.816H232.581V182.208H231.413L228.261 184.928L229.045 185.872L231.173 183.968C231.162 184.021 231.157 184.08 231.157 184.144V192.816H228.549V194H234.885ZM239.856 186.64L243.392 182.208H241.552L238.288 186.608C237.776 187.28 237.403 187.915 237.168 188.512C236.944 189.099 236.832 189.653 236.832 190.176C236.832 190.784 236.923 191.339 237.104 191.84C237.296 192.331 237.563 192.752 237.904 193.104C238.245 193.456 238.656 193.728 239.136 193.92C239.627 194.112 240.171 194.208 240.768 194.208C241.365 194.208 241.915 194.112 242.416 193.92C242.917 193.717 243.344 193.44 243.696 193.088C244.059 192.736 244.336 192.325 244.528 191.856C244.731 191.387 244.832 190.88 244.832 190.336C244.832 189.771 244.736 189.269 244.544 188.832C244.363 188.395 244.112 188.027 243.792 187.728C243.472 187.419 243.099 187.189 242.672 187.04C242.245 186.88 241.792 186.8 241.312 186.8C240.917 186.8 240.555 186.853 240.224 186.96C239.893 187.067 239.584 187.216 239.296 187.408C239.349 187.344 239.419 187.248 239.504 187.12C239.6 186.992 239.717 186.832 239.856 186.64ZM240.736 192.976C239.936 192.976 239.323 192.741 238.896 192.272C238.469 191.803 238.256 191.184 238.256 190.416C238.256 190.085 238.315 189.771 238.432 189.472C238.56 189.173 238.736 188.912 238.96 188.688C239.184 188.453 239.451 188.272 239.76 188.144C240.08 188.005 240.437 187.936 240.832 187.936C241.195 187.936 241.531 187.995 241.84 188.112C242.149 188.229 242.416 188.395 242.64 188.608C242.864 188.821 243.04 189.088 243.168 189.408C243.296 189.717 243.36 190.064 243.36 190.448C243.36 190.811 243.296 191.147 243.168 191.456C243.04 191.765 242.859 192.032 242.624 192.256C242.4 192.48 242.123 192.656 241.792 192.784C241.472 192.912 241.12 192.976 240.736 192.976Z" fill="black"/>
<path d="M278.885 194V192.816H276.581V182.208H275.413L272.261 184.928L273.045 185.872L275.173 183.968C275.162 184.021 275.157 184.08 275.157 184.144V192.816H272.549V194H278.885ZM288.816 183.216V182.272H281.104V183.52H287.232L286.688 184.416L281.904 194H283.52L288.816 183.216Z" fill="black"/>
<path d="M20.8848 226V224.816H18.5808V214.208H17.4128L14.2608 216.928L15.0448 217.872L17.1727 215.968C17.1621 216.021 17.1568 216.08 17.1568 216.144V224.816H14.5488V226H20.8848ZM28.48 219.888C29.76 219.419 30.4 218.501 30.4 217.136C30.4 216.699 30.3093 216.293 30.128 215.92C29.9573 215.536 29.712 215.2 29.392 214.912C29.072 214.624 28.688 214.4 28.24 214.24C27.792 214.069 27.3013 213.984 26.768 213.984C26.2133 213.984 25.712 214.069 25.264 214.24C24.816 214.4 24.432 214.624 24.112 214.912C23.8027 215.2 23.5627 215.536 23.392 215.92C23.2213 216.293 23.136 216.699 23.136 217.136C23.136 217.808 23.296 218.379 23.616 218.848C23.9467 219.307 24.416 219.653 25.024 219.888C24.288 220.091 23.7173 220.443 23.312 220.944C22.9067 221.445 22.704 222.08 22.704 222.848C22.704 223.371 22.8 223.845 22.992 224.272C23.1947 224.688 23.472 225.045 23.824 225.344C24.1867 225.643 24.6187 225.872 25.12 226.032C25.6213 226.192 26.1707 226.272 26.768 226.272C27.3653 226.272 27.9093 226.192 28.4 226.032C28.8907 225.872 29.312 225.643 29.664 225.344C30.0267 225.045 30.304 224.688 30.496 224.272C30.6987 223.845 30.8 223.371 30.8 222.848C30.8 222.08 30.5973 221.445 30.192 220.944C29.7973 220.443 29.2267 220.091 28.48 219.888ZM26.768 215.152C27.1307 215.152 27.4453 215.205 27.712 215.312C27.9787 215.419 28.1973 215.563 28.368 215.744C28.5493 215.925 28.6827 216.144 28.768 216.4C28.864 216.645 28.912 216.907 28.912 217.184C28.912 217.451 28.8747 217.712 28.8 217.968C28.7253 218.224 28.6027 218.453 28.432 218.656C28.2613 218.859 28.0373 219.024 27.76 219.152C27.4933 219.269 27.1627 219.328 26.768 219.328C26.3627 219.328 26.0213 219.269 25.744 219.152C25.4667 219.024 25.2427 218.859 25.072 218.656C24.9013 218.453 24.7787 218.224 24.704 217.968C24.6293 217.712 24.592 217.451 24.592 217.184C24.592 216.907 24.6347 216.645 24.72 216.4C24.816 216.144 24.9493 215.925 25.12 215.744C25.3013 215.563 25.5307 215.419 25.808 215.312C26.0853 215.205 26.4053 215.152 26.768 215.152ZM26.768 225.072C25.968 225.072 25.3493 224.869 24.912 224.464C24.4747 224.048 24.256 223.504 24.256 222.832C24.256 222.416 24.32 222.064 24.448 221.776C24.5867 221.477 24.7733 221.237 25.008 221.056C25.2427 220.864 25.5093 220.725 25.808 220.64C26.1173 220.544 26.4373 220.496 26.768 220.496C27.0987 220.496 27.4133 220.544 27.712 220.64C28.0107 220.725 28.272 220.864 28.496 221.056C28.7307 221.237 28.912 221.477 29.04 221.776C29.1787 222.064 29.248 222.416 29.248 222.832C29.248 223.504 29.0347 224.048 28.608 224.464C28.1813 224.869 27.568 225.072 26.768 225.072Z" fill="#D62A2A"/>
<path d="M21.1888 258V256.704H16.5648C16.3621 256.704 16.1434 256.72 15.9088 256.752C15.6848 256.784 15.4608 256.832 15.2368 256.896L18.5168 253.648C18.8474 253.317 19.1621 252.992 19.4608 252.672C19.7594 252.341 20.0208 252.005 20.2448 251.664C20.4688 251.312 20.6448 250.949 20.7728 250.576C20.9008 250.203 20.9648 249.797 20.9648 249.36C20.9648 248.837 20.8741 248.373 20.6927 247.968C20.5114 247.563 20.2608 247.221 19.9408 246.944C19.6208 246.656 19.2421 246.437 18.8048 246.288C18.3781 246.139 17.9141 246.064 17.4128 246.064C16.9114 246.064 16.4421 246.139 16.0048 246.288C15.5674 246.427 15.1781 246.64 14.8368 246.928C14.5061 247.205 14.2288 247.552 14.0048 247.968C13.7808 248.373 13.6314 248.848 13.5568 249.392L14.9968 249.632C14.9968 249.291 15.0554 248.981 15.1728 248.704C15.2901 248.427 15.4501 248.187 15.6528 247.984C15.8661 247.771 16.1168 247.611 16.4048 247.504C16.6928 247.387 17.0021 247.328 17.3328 247.328C17.9408 247.328 18.4474 247.499 18.8528 247.84C19.2581 248.171 19.4714 248.688 19.4928 249.392C19.4928 249.733 19.4394 250.059 19.3328 250.368C19.2261 250.667 19.0768 250.965 18.8848 251.264C18.7034 251.563 18.4794 251.861 18.2128 252.16C17.9568 252.448 17.6741 252.757 17.3648 253.088L13.3168 256.976V258H21.1888ZM25.056 250.64L25.584 247.568H30.176V246.224H24.56L23.6 251.776L24.544 252.048C24.8853 251.931 25.2107 251.84 25.52 251.776C25.84 251.701 26.1547 251.664 26.464 251.664C27.3067 251.664 27.9627 251.877 28.432 252.304C28.9013 252.731 29.136 253.328 29.136 254.096C29.136 254.523 29.0667 254.907 28.928 255.248C28.7893 255.589 28.5973 255.877 28.352 256.112C28.1067 256.347 27.8133 256.528 27.472 256.656C27.1307 256.773 26.7573 256.832 26.352 256.832C25.872 256.832 25.408 256.736 24.96 256.544C24.512 256.352 24.112 256.107 23.76 255.808L22.976 256.88C23.3387 257.221 23.8027 257.52 24.368 257.776C24.944 258.021 25.584 258.144 26.288 258.144C26.8853 258.144 27.44 258.048 27.952 257.856C28.4747 257.653 28.928 257.376 29.312 257.024C29.696 256.661 29.9947 256.224 30.208 255.712C30.432 255.2 30.544 254.635 30.544 254.016C30.544 253.504 30.4587 253.029 30.288 252.592C30.128 252.155 29.888 251.776 29.568 251.456C29.248 251.136 28.848 250.885 28.368 250.704C27.8987 250.523 27.3547 250.432 26.736 250.432C26.1387 250.432 25.5787 250.501 25.056 250.64Z" fill="#D62A2A"/>
<path d="M150.189 226V224.704H145.565C145.362 224.704 145.143 224.72 144.909 224.752C144.685 224.784 144.461 224.832 144.237 224.896L147.517 221.648C147.847 221.317 148.162 220.992 148.461 220.672C148.759 220.341 149.021 220.005 149.245 219.664C149.469 219.312 149.645 218.949 149.773 218.576C149.901 218.203 149.965 217.797 149.965 217.36C149.965 216.837 149.874 216.373 149.693 215.968C149.511 215.563 149.261 215.221 148.941 214.944C148.621 214.656 148.242 214.437 147.805 214.288C147.378 214.139 146.914 214.064 146.413 214.064C145.911 214.064 145.442 214.139 145.005 214.288C144.567 214.427 144.178 214.64 143.837 214.928C143.506 215.205 143.229 215.552 143.005 215.968C142.781 216.373 142.631 216.848 142.557 217.392L143.997 217.632C143.997 217.291 144.055 216.981 144.173 216.704C144.29 216.427 144.45 216.187 144.653 215.984C144.866 215.771 145.117 215.611 145.405 215.504C145.693 215.387 146.002 215.328 146.333 215.328C146.941 215.328 147.447 215.499 147.853 215.84C148.258 216.171 148.471 216.688 148.493 217.392C148.493 217.733 148.439 218.059 148.333 218.368C148.226 218.667 148.077 218.965 147.885 219.264C147.703 219.563 147.479 219.861 147.213 220.16C146.957 220.448 146.674 220.757 146.365 221.088L142.317 224.976V226H150.189ZM159.416 226V224.816H157.112V214.208H155.944L152.792 216.928L153.576 217.872L155.704 215.968C155.693 216.021 155.688 216.08 155.688 216.144V224.816H153.08V226H159.416Z" fill="black"/>
<path d="M150.189 258V256.704H145.565C145.362 256.704 145.143 256.72 144.909 256.752C144.685 256.784 144.461 256.832 144.237 256.896L147.517 253.648C147.847 253.317 148.162 252.992 148.461 252.672C148.759 252.341 149.021 252.005 149.245 251.664C149.469 251.312 149.645 250.949 149.773 250.576C149.901 250.203 149.965 249.797 149.965 249.36C149.965 248.837 149.874 248.373 149.693 247.968C149.511 247.563 149.261 247.221 148.941 246.944C148.621 246.656 148.242 246.437 147.805 246.288C147.378 246.139 146.914 246.064 146.413 246.064C145.911 246.064 145.442 246.139 145.005 246.288C144.567 246.427 144.178 246.64 143.837 246.928C143.506 247.205 143.229 247.552 143.005 247.968C142.781 248.373 142.631 248.848 142.557 249.392L143.997 249.632C143.997 249.291 144.055 248.981 144.173 248.704C144.29 248.427 144.45 248.187 144.653 247.984C144.866 247.771 145.117 247.611 145.405 247.504C145.693 247.387 146.002 247.328 146.333 247.328C146.941 247.328 147.447 247.499 147.853 247.84C148.258 248.171 148.471 248.688 148.493 249.392C148.493 249.733 148.439 250.059 148.333 250.368C148.226 250.667 148.077 250.965 147.885 251.264C147.703 251.563 147.479 251.861 147.213 252.16C146.957 252.448 146.674 252.757 146.365 253.088L142.317 256.976V258H150.189ZM157.48 251.888C158.76 251.419 159.4 250.501 159.4 249.136C159.4 248.699 159.309 248.293 159.128 247.92C158.957 247.536 158.712 247.2 158.392 246.912C158.072 246.624 157.688 246.4 157.24 246.24C156.792 246.069 156.301 245.984 155.768 245.984C155.213 245.984 154.712 246.069 154.264 246.24C153.816 246.4 153.432 246.624 153.112 246.912C152.803 247.2 152.563 247.536 152.392 247.92C152.221 248.293 152.136 248.699 152.136 249.136C152.136 249.808 152.296 250.379 152.616 250.848C152.947 251.307 153.416 251.653 154.024 251.888C153.288 252.091 152.717 252.443 152.312 252.944C151.907 253.445 151.704 254.08 151.704 254.848C151.704 255.371 151.8 255.845 151.992 256.272C152.195 256.688 152.472 257.045 152.824 257.344C153.187 257.643 153.619 257.872 154.12 258.032C154.621 258.192 155.171 258.272 155.768 258.272C156.365 258.272 156.909 258.192 157.4 258.032C157.891 257.872 158.312 257.643 158.664 257.344C159.027 257.045 159.304 256.688 159.496 256.272C159.699 255.845 159.8 255.371 159.8 254.848C159.8 254.08 159.597 253.445 159.192 252.944C158.797 252.443 158.227 252.091 157.48 251.888ZM155.768 247.152C156.131 247.152 156.445 247.205 156.712 247.312C156.979 247.419 157.197 247.563 157.368 247.744C157.549 247.925 157.683 248.144 157.768 248.4C157.864 248.645 157.912 248.907 157.912 249.184C157.912 249.451 157.875 249.712 157.8 249.968C157.725 250.224 157.603 250.453 157.432 250.656C157.261 250.859 157.037 251.024 156.76 251.152C156.493 251.269 156.163 251.328 155.768 251.328C155.363 251.328 155.021 251.269 154.744 251.152C154.467 251.024 154.243 250.859 154.072 250.656C153.901 250.453 153.779 250.224 153.704 249.968C153.629 249.712 153.592 249.451 153.592 249.184C153.592 248.907 153.635 248.645 153.72 248.4C153.816 248.144 153.949 247.925 154.12 247.744C154.301 247.563 154.531 247.419 154.808 247.312C155.085 247.205 155.405 247.152 155.768 247.152ZM155.768 257.072C154.968 257.072 154.349 256.869 153.912 256.464C153.475 256.048 153.256 255.504 153.256 254.832C153.256 254.416 153.32 254.064 153.448 253.776C153.587 253.477 153.773 253.237 154.008 253.056C154.243 252.864 154.509 252.725 154.808 252.64C155.117 252.544 155.437 252.496 155.768 252.496C156.099 252.496 156.413 252.544 156.712 252.64C157.011 252.725 157.272 252.864 157.496 253.056C157.731 253.237 157.912 253.477 158.04 253.776C158.179 254.064 158.248 254.416 158.248 254.832C158.248 255.504 158.035 256.048 157.608 256.464C157.181 256.869 156.568 257.072 155.768 257.072Z" fill="black"/>
<path d="M63.8848 226V224.816H61.5808V214.208H60.4128L57.2608 216.928L58.0448 217.872L60.1727 215.968C60.1621 216.021 60.1568 216.08 60.1568 216.144V224.816H57.5488V226H63.8848ZM70.84 221.344L67.192 226H69.032L72.248 221.568C72.696 220.949 73.0427 220.352 73.288 219.776C73.5333 219.2 73.656 218.565 73.656 217.872C73.656 217.296 73.5653 216.773 73.384 216.304C73.2027 215.824 72.9413 215.413 72.6 215.072C72.2693 214.731 71.8693 214.464 71.4 214.272C70.9307 214.08 70.408 213.984 69.832 213.984C69.2453 213.984 68.7067 214.085 68.216 214.288C67.736 214.48 67.32 214.747 66.968 215.088C66.616 215.429 66.3387 215.829 66.136 216.288C65.944 216.747 65.848 217.237 65.848 217.76C65.848 218.315 65.9387 218.805 66.12 219.232C66.3013 219.659 66.5413 220.021 66.84 220.32C67.1493 220.608 67.5067 220.827 67.912 220.976C68.328 221.125 68.7653 221.2 69.224 221.2C70.0987 221.2 70.8507 220.949 71.48 220.448C71.4267 220.523 71.3467 220.635 71.24 220.784C71.144 220.933 71.0107 221.12 70.84 221.344ZM67.336 217.648C67.336 216.933 67.56 216.357 68.008 215.92C68.4667 215.472 69.0693 215.248 69.816 215.248C70.1573 215.248 70.4773 215.307 70.776 215.424C71.0747 215.531 71.3307 215.691 71.544 215.904C71.7573 216.107 71.9227 216.363 72.04 216.672C72.168 216.971 72.232 217.312 72.232 217.696C72.232 218.005 72.1733 218.304 72.056 218.592C71.9493 218.869 71.784 219.12 71.56 219.344C71.3467 219.557 71.0853 219.728 70.776 219.856C70.4667 219.984 70.1093 220.048 69.704 220.048C68.968 220.048 68.3867 219.845 67.96 219.44C67.544 219.024 67.336 218.427 67.336 217.648Z" fill="black"/>
<path d="M64.1888 258V256.704H59.5648C59.3621 256.704 59.1434 256.72 58.9088 256.752C58.6848 256.784 58.4608 256.832 58.2368 256.896L61.5168 253.648C61.8474 253.317 62.1621 252.992 62.4608 252.672C62.7594 252.341 63.0208 252.005 63.2448 251.664C63.4688 251.312 63.6448 250.949 63.7728 250.576C63.9008 250.203 63.9648 249.797 63.9648 249.36C63.9648 248.837 63.8741 248.373 63.6927 247.968C63.5114 247.563 63.2608 247.221 62.9408 246.944C62.6208 246.656 62.2421 246.437 61.8048 246.288C61.3781 246.139 60.9141 246.064 60.4128 246.064C59.9114 246.064 59.4421 246.139 59.0048 246.288C58.5674 246.427 58.1781 246.64 57.8368 246.928C57.5061 247.205 57.2288 247.552 57.0048 247.968C56.7808 248.373 56.6314 248.848 56.5568 249.392L57.9968 249.632C57.9968 249.291 58.0554 248.981 58.1728 248.704C58.2901 248.427 58.4501 248.187 58.6528 247.984C58.8661 247.771 59.1168 247.611 59.4048 247.504C59.6928 247.387 60.0021 247.328 60.3328 247.328C60.9408 247.328 61.4474 247.499 61.8528 247.84C62.2581 248.171 62.4714 248.688 62.4928 249.392C62.4928 249.733 62.4394 250.059 62.3328 250.368C62.2261 250.667 62.0768 250.965 61.8848 251.264C61.7034 251.563 61.4794 251.861 61.2128 252.16C60.9568 252.448 60.6741 252.757 60.3648 253.088L56.3168 256.976V258H64.1888ZM68.856 250.64L72.392 246.208H70.552L67.288 250.608C66.776 251.28 66.4027 251.915 66.168 252.512C65.944 253.099 65.832 253.653 65.832 254.176C65.832 254.784 65.9227 255.339 66.104 255.84C66.296 256.331 66.5627 256.752 66.904 257.104C67.2453 257.456 67.656 257.728 68.136 257.92C68.6267 258.112 69.1707 258.208 69.768 258.208C70.3653 258.208 70.9147 258.112 71.416 257.92C71.9173 257.717 72.344 257.44 72.696 257.088C73.0587 256.736 73.336 256.325 73.528 255.856C73.7307 255.387 73.832 254.88 73.832 254.336C73.832 253.771 73.736 253.269 73.544 252.832C73.3627 252.395 73.112 252.027 72.792 251.728C72.472 251.419 72.0987 251.189 71.672 251.04C71.2453 250.88 70.792 250.8 70.312 250.8C69.9173 250.8 69.5547 250.853 69.224 250.96C68.8933 251.067 68.584 251.216 68.296 251.408C68.3493 251.344 68.4187 251.248 68.504 251.12C68.6 250.992 68.7173 250.832 68.856 250.64ZM69.736 256.976C68.936 256.976 68.3227 256.741 67.896 256.272C67.4693 255.803 67.256 255.184 67.256 254.416C67.256 254.085 67.3147 253.771 67.432 253.472C67.56 253.173 67.736 252.912 67.96 252.688C68.184 252.453 68.4507 252.272 68.76 252.144C69.08 252.005 69.4373 251.936 69.832 251.936C70.1947 251.936 70.5307 251.995 70.84 252.112C71.1493 252.229 71.416 252.395 71.64 252.608C71.864 252.821 72.04 253.088 72.168 253.408C72.296 253.717 72.36 254.064 72.36 254.448C72.36 254.811 72.296 255.147 72.168 255.456C72.04 255.765 71.8587 256.032 71.624 256.256C71.4 256.48 71.1227 256.656 70.792 256.784C70.472 256.912 70.12 256.976 69.736 256.976Z" fill="black"/>
<path d="M192.189 226V224.704H187.565C187.362 224.704 187.143 224.72 186.909 224.752C186.685 224.784 186.461 224.832 186.237 224.896L189.517 221.648C189.847 221.317 190.162 220.992 190.461 220.672C190.759 220.341 191.021 220.005 191.245 219.664C191.469 219.312 191.645 218.949 191.773 218.576C191.901 218.203 191.965 217.797 191.965 217.36C191.965 216.837 191.874 216.373 191.693 215.968C191.511 215.563 191.261 215.221 190.941 214.944C190.621 214.656 190.242 214.437 189.805 214.288C189.378 214.139 188.914 214.064 188.413 214.064C187.911 214.064 187.442 214.139 187.005 214.288C186.567 214.427 186.178 214.64 185.837 214.928C185.506 215.205 185.229 215.552 185.005 215.968C184.781 216.373 184.631 216.848 184.557 217.392L185.997 217.632C185.997 217.291 186.055 216.981 186.173 216.704C186.29 216.427 186.45 216.187 186.653 215.984C186.866 215.771 187.117 215.611 187.405 215.504C187.693 215.387 188.002 215.328 188.333 215.328C188.941 215.328 189.447 215.499 189.853 215.84C190.258 216.171 190.471 216.688 190.493 217.392C190.493 217.733 190.439 218.059 190.333 218.368C190.226 218.667 190.077 218.965 189.885 219.264C189.703 219.563 189.479 219.861 189.213 220.16C188.957 220.448 188.674 220.757 188.365 221.088L184.317 224.976V226H192.189ZM201.72 226V224.704H197.096C196.893 224.704 196.675 224.72 196.44 224.752C196.216 224.784 195.992 224.832 195.768 224.896L199.048 221.648C199.379 221.317 199.693 220.992 199.992 220.672C200.291 220.341 200.552 220.005 200.776 219.664C201 219.312 201.176 218.949 201.304 218.576C201.432 218.203 201.496 217.797 201.496 217.36C201.496 216.837 201.405 216.373 201.224 215.968C201.043 215.563 200.792 215.221 200.472 214.944C200.152 214.656 199.773 214.437 199.336 214.288C198.909 214.139 198.445 214.064 197.944 214.064C197.443 214.064 196.973 214.139 196.536 214.288C196.099 214.427 195.709 214.64 195.368 214.928C195.037 215.205 194.76 215.552 194.536 215.968C194.312 216.373 194.163 216.848 194.088 217.392L195.528 217.632C195.528 217.291 195.587 216.981 195.704 216.704C195.821 216.427 195.981 216.187 196.184 215.984C196.397 215.771 196.648 215.611 196.936 215.504C197.224 215.387 197.533 215.328 197.864 215.328C198.472 215.328 198.979 215.499 199.384 215.84C199.789 216.171 200.003 216.688 200.024 217.392C200.024 217.733 199.971 218.059 199.864 218.368C199.757 218.667 199.608 218.965 199.416 219.264C199.235 219.563 199.011 219.861 198.744 220.16C198.488 220.448 198.205 220.757 197.896 221.088L193.848 224.976V226H201.72Z" fill="black"/>
<path d="M192.189 258V256.704H187.565C187.362 256.704 187.143 256.72 186.909 256.752C186.685 256.784 186.461 256.832 186.237 256.896L189.517 253.648C189.847 253.317 190.162 252.992 190.461 252.672C190.759 252.341 191.021 252.005 191.245 251.664C191.469 251.312 191.645 250.949 191.773 250.576C191.901 250.203 191.965 249.797 191.965 249.36C191.965 248.837 191.874 248.373 191.693 247.968C191.511 247.563 191.261 247.221 190.941 246.944C190.621 246.656 190.242 246.437 189.805 246.288C189.378 246.139 188.914 246.064 188.413 246.064C187.911 246.064 187.442 246.139 187.005 246.288C186.567 246.427 186.178 246.64 185.837 246.928C185.506 247.205 185.229 247.552 185.005 247.968C184.781 248.373 184.631 248.848 184.557 249.392L185.997 249.632C185.997 249.291 186.055 248.981 186.173 248.704C186.29 248.427 186.45 248.187 186.653 247.984C186.866 247.771 187.117 247.611 187.405 247.504C187.693 247.387 188.002 247.328 188.333 247.328C188.941 247.328 189.447 247.499 189.853 247.84C190.258 248.171 190.471 248.688 190.493 249.392C190.493 249.733 190.439 250.059 190.333 250.368C190.226 250.667 190.077 250.965 189.885 251.264C189.703 251.563 189.479 251.861 189.213 252.16C188.957 252.448 188.674 252.757 188.365 253.088L184.317 256.976V258H192.189ZM198.84 253.344L195.192 258H197.032L200.248 253.568C200.696 252.949 201.043 252.352 201.288 251.776C201.533 251.2 201.656 250.565 201.656 249.872C201.656 249.296 201.565 248.773 201.384 248.304C201.203 247.824 200.941 247.413 200.6 247.072C200.269 246.731 199.869 246.464 199.4 246.272C198.931 246.08 198.408 245.984 197.832 245.984C197.245 245.984 196.707 246.085 196.216 246.288C195.736 246.48 195.32 246.747 194.968 247.088C194.616 247.429 194.339 247.829 194.136 248.288C193.944 248.747 193.848 249.237 193.848 249.76C193.848 250.315 193.939 250.805 194.12 251.232C194.301 251.659 194.541 252.021 194.84 252.32C195.149 252.608 195.507 252.827 195.912 252.976C196.328 253.125 196.765 253.2 197.224 253.2C198.099 253.2 198.851 252.949 199.48 252.448C199.427 252.523 199.347 252.635 199.24 252.784C199.144 252.933 199.011 253.12 198.84 253.344ZM195.336 249.648C195.336 248.933 195.56 248.357 196.008 247.92C196.467 247.472 197.069 247.248 197.816 247.248C198.157 247.248 198.477 247.307 198.776 247.424C199.075 247.531 199.331 247.691 199.544 247.904C199.757 248.107 199.923 248.363 200.04 248.672C200.168 248.971 200.232 249.312 200.232 249.696C200.232 250.005 200.173 250.304 200.056 250.592C199.949 250.869 199.784 251.12 199.56 251.344C199.347 251.557 199.085 251.728 198.776 251.856C198.467 251.984 198.109 252.048 197.704 252.048C196.968 252.048 196.387 251.845 195.96 251.44C195.544 251.024 195.336 250.427 195.336 249.648Z" fill="black"/>
<path d="M107.189 226V224.704H102.565C102.362 224.704 102.143 224.72 101.909 224.752C101.685 224.784 101.461 224.832 101.237 224.896L104.517 221.648C104.847 221.317 105.162 220.992 105.461 220.672C105.759 220.341 106.021 220.005 106.245 219.664C106.469 219.312 106.645 218.949 106.773 218.576C106.901 218.203 106.965 217.797 106.965 217.36C106.965 216.837 106.874 216.373 106.693 215.968C106.511 215.563 106.261 215.221 105.941 214.944C105.621 214.656 105.242 214.437 104.805 214.288C104.378 214.139 103.914 214.064 103.413 214.064C102.911 214.064 102.442 214.139 102.005 214.288C101.567 214.427 101.178 214.64 100.837 214.928C100.506 215.205 100.229 215.552 100.005 215.968C99.7808 216.373 99.6314 216.848 99.5568 217.392L100.997 217.632C100.997 217.291 101.055 216.981 101.173 216.704C101.29 216.427 101.45 216.187 101.653 215.984C101.866 215.771 102.117 215.611 102.405 215.504C102.693 215.387 103.002 215.328 103.333 215.328C103.941 215.328 104.447 215.499 104.853 215.84C105.258 216.171 105.471 216.688 105.493 217.392C105.493 217.733 105.439 218.059 105.333 218.368C105.226 218.667 105.077 218.965 104.885 219.264C104.703 219.563 104.479 219.861 104.213 220.16C103.957 220.448 103.674 220.757 103.365 221.088L99.3168 224.976V226H107.189ZM117.104 220.16C117.104 219.115 116.992 218.213 116.768 217.456C116.544 216.688 116.24 216.053 115.856 215.552C115.472 215.051 115.019 214.683 114.496 214.448C113.973 214.203 113.408 214.08 112.8 214.08C112.192 214.08 111.627 214.203 111.104 214.448C110.581 214.683 110.123 215.051 109.728 215.552C109.344 216.053 109.04 216.688 108.816 217.456C108.603 218.213 108.496 219.115 108.496 220.16C108.496 221.195 108.603 222.096 108.816 222.864C109.04 223.621 109.344 224.251 109.728 224.752C110.123 225.253 110.581 225.627 111.104 225.872C111.627 226.107 112.192 226.224 112.8 226.224C113.408 226.224 113.973 226.107 114.496 225.872C115.019 225.627 115.472 225.253 115.856 224.752C116.24 224.251 116.544 223.621 116.768 222.864C116.992 222.096 117.104 221.195 117.104 220.16ZM115.632 220.16C115.632 221.067 115.552 221.835 115.392 222.464C115.243 223.083 115.035 223.584 114.768 223.968C114.512 224.352 114.213 224.629 113.872 224.8C113.531 224.96 113.173 225.04 112.8 225.04C112.427 225.04 112.069 224.96 111.728 224.8C111.387 224.629 111.088 224.352 110.832 223.968C110.576 223.584 110.368 223.083 110.208 222.464C110.059 221.835 109.984 221.067 109.984 220.16C109.984 219.243 110.059 218.475 110.208 217.856C110.368 217.227 110.576 216.725 110.832 216.352C111.088 215.968 111.387 215.696 111.728 215.536C112.069 215.365 112.427 215.28 112.8 215.28C113.173 215.28 113.531 215.365 113.872 215.536C114.213 215.696 114.512 215.968 114.768 216.352C115.035 216.725 115.243 217.227 115.392 217.856C115.552 218.475 115.632 219.243 115.632 220.16Z" fill="black"/>
<path d="M107.189 258V256.704H102.565C102.362 256.704 102.143 256.72 101.909 256.752C101.685 256.784 101.461 256.832 101.237 256.896L104.517 253.648C104.847 253.317 105.162 252.992 105.461 252.672C105.759 252.341 106.021 252.005 106.245 251.664C106.469 251.312 106.645 250.949 106.773 250.576C106.901 250.203 106.965 249.797 106.965 249.36C106.965 248.837 106.874 248.373 106.693 247.968C106.511 247.563 106.261 247.221 105.941 246.944C105.621 246.656 105.242 246.437 104.805 246.288C104.378 246.139 103.914 246.064 103.413 246.064C102.911 246.064 102.442 246.139 102.005 246.288C101.567 246.427 101.178 246.64 100.837 246.928C100.506 247.205 100.229 247.552 100.005 247.968C99.7808 248.373 99.6314 248.848 99.5568 249.392L100.997 249.632C100.997 249.291 101.055 248.981 101.173 248.704C101.29 248.427 101.45 248.187 101.653 247.984C101.866 247.771 102.117 247.611 102.405 247.504C102.693 247.387 103.002 247.328 103.333 247.328C103.941 247.328 104.447 247.499 104.853 247.84C105.258 248.171 105.471 248.688 105.493 249.392C105.493 249.733 105.439 250.059 105.333 250.368C105.226 250.667 105.077 250.965 104.885 251.264C104.703 251.563 104.479 251.861 104.213 252.16C103.957 252.448 103.674 252.757 103.365 253.088L99.3168 256.976V258H107.189ZM116.816 247.216V246.272H109.104V247.52H115.232L114.688 248.416L109.904 258H111.52L116.816 247.216Z" fill="black"/>
<path d="M235.189 226V224.704H230.565C230.362 224.704 230.143 224.72 229.909 224.752C229.685 224.784 229.461 224.832 229.237 224.896L232.517 221.648C232.847 221.317 233.162 220.992 233.461 220.672C233.759 220.341 234.021 220.005 234.245 219.664C234.469 219.312 234.645 218.949 234.773 218.576C234.901 218.203 234.965 217.797 234.965 217.36C234.965 216.837 234.874 216.373 234.693 215.968C234.511 215.563 234.261 215.221 233.941 214.944C233.621 214.656 233.242 214.437 232.805 214.288C232.378 214.139 231.914 214.064 231.413 214.064C230.911 214.064 230.442 214.139 230.005 214.288C229.567 214.427 229.178 214.64 228.837 214.928C228.506 215.205 228.229 215.552 228.005 215.968C227.781 216.373 227.631 216.848 227.557 217.392L228.997 217.632C228.997 217.291 229.055 216.981 229.173 216.704C229.29 216.427 229.45 216.187 229.653 215.984C229.866 215.771 230.117 215.611 230.405 215.504C230.693 215.387 231.002 215.328 231.333 215.328C231.941 215.328 232.447 215.499 232.853 215.84C233.258 216.171 233.471 216.688 233.493 217.392C233.493 217.733 233.439 218.059 233.333 218.368C233.226 218.667 233.077 218.965 232.885 219.264C232.703 219.563 232.479 219.861 232.213 220.16C231.957 220.448 231.674 220.757 231.365 221.088L227.317 224.976V226H235.189ZM237.136 217.424L238.592 217.664C238.592 217.333 238.651 217.029 238.768 216.752C238.885 216.475 239.045 216.235 239.248 216.032C239.451 215.819 239.696 215.653 239.984 215.536C240.272 215.419 240.581 215.36 240.912 215.36C241.531 215.36 242.032 215.525 242.416 215.856C242.811 216.187 243.008 216.688 243.008 217.36C243.008 217.659 242.96 217.936 242.864 218.192C242.768 218.448 242.608 218.672 242.384 218.864C242.16 219.045 241.867 219.189 241.504 219.296C241.152 219.403 240.72 219.461 240.208 219.472V220.528C240.837 220.528 241.349 220.587 241.744 220.704C242.139 220.811 242.448 220.96 242.672 221.152C242.896 221.344 243.045 221.573 243.12 221.84C243.205 222.107 243.248 222.4 243.248 222.72C243.248 222.976 243.195 223.237 243.088 223.504C242.992 223.771 242.837 224.011 242.624 224.224C242.421 224.437 242.16 224.613 241.84 224.752C241.531 224.88 241.168 224.944 240.752 224.944C240.144 224.944 239.648 224.8 239.264 224.512C238.88 224.213 238.565 223.808 238.32 223.296C238.192 222.987 238.112 222.747 238.08 222.576L236.768 223.12C236.907 223.547 237.072 223.952 237.264 224.336C237.467 224.709 237.723 225.035 238.032 225.312C238.341 225.589 238.715 225.808 239.152 225.968C239.6 226.128 240.139 226.208 240.768 226.208C241.312 226.208 241.824 226.128 242.304 225.968C242.795 225.797 243.216 225.563 243.568 225.264C243.931 224.955 244.213 224.581 244.416 224.144C244.629 223.707 244.736 223.221 244.736 222.688C244.736 221.952 244.539 221.344 244.144 220.864C243.749 220.384 243.168 220.048 242.4 219.856C243.04 219.643 243.541 219.328 243.904 218.912C244.277 218.485 244.464 217.888 244.464 217.12C244.464 216.672 244.379 216.261 244.208 215.888C244.037 215.515 243.797 215.195 243.488 214.928C243.179 214.661 242.811 214.453 242.384 214.304C241.968 214.155 241.504 214.08 240.992 214.08C240.491 214.08 240.021 214.155 239.584 214.304C239.147 214.453 238.757 214.672 238.416 214.96C238.085 215.237 237.808 215.584 237.584 216C237.36 216.416 237.211 216.891 237.136 217.424Z" fill="black"/>
<path d="M227.605 249.424L229.061 249.664C229.061 249.333 229.119 249.029 229.237 248.752C229.354 248.475 229.514 248.235 229.717 248.032C229.919 247.819 230.165 247.653 230.453 247.536C230.741 247.419 231.05 247.36 231.381 247.36C231.999 247.36 232.501 247.525 232.885 247.856C233.279 248.187 233.477 248.688 233.477 249.36C233.477 249.659 233.429 249.936 233.333 250.192C233.237 250.448 233.077 250.672 232.853 250.864C232.629 251.045 232.335 251.189 231.973 251.296C231.621 251.403 231.189 251.461 230.677 251.472V252.528C231.306 252.528 231.818 252.587 232.213 252.704C232.607 252.811 232.917 252.96 233.141 253.152C233.365 253.344 233.514 253.573 233.589 253.84C233.674 254.107 233.717 254.4 233.717 254.72C233.717 254.976 233.663 255.237 233.557 255.504C233.461 255.771 233.306 256.011 233.093 256.224C232.89 256.437 232.629 256.613 232.309 256.752C231.999 256.88 231.637 256.944 231.221 256.944C230.613 256.944 230.117 256.8 229.733 256.512C229.349 256.213 229.034 255.808 228.789 255.296C228.661 254.987 228.581 254.747 228.549 254.576L227.237 255.12C227.375 255.547 227.541 255.952 227.733 256.336C227.935 256.709 228.191 257.035 228.501 257.312C228.81 257.589 229.183 257.808 229.621 257.968C230.069 258.128 230.607 258.208 231.237 258.208C231.781 258.208 232.293 258.128 232.773 257.968C233.263 257.797 233.685 257.563 234.037 257.264C234.399 256.955 234.682 256.581 234.885 256.144C235.098 255.707 235.205 255.221 235.205 254.688C235.205 253.952 235.007 253.344 234.613 252.864C234.218 252.384 233.637 252.048 232.869 251.856C233.509 251.643 234.01 251.328 234.373 250.912C234.746 250.485 234.933 249.888 234.933 249.12C234.933 248.672 234.847 248.261 234.677 247.888C234.506 247.515 234.266 247.195 233.957 246.928C233.647 246.661 233.279 246.453 232.853 246.304C232.437 246.155 231.973 246.08 231.461 246.08C230.959 246.08 230.49 246.155 230.053 246.304C229.615 246.453 229.226 246.672 228.885 246.96C228.554 247.237 228.277 247.584 228.053 248C227.829 248.416 227.679 248.891 227.605 249.424ZM245.104 252.16C245.104 251.115 244.992 250.213 244.768 249.456C244.544 248.688 244.24 248.053 243.856 247.552C243.472 247.051 243.019 246.683 242.496 246.448C241.973 246.203 241.408 246.08 240.8 246.08C240.192 246.08 239.627 246.203 239.104 246.448C238.581 246.683 238.123 247.051 237.728 247.552C237.344 248.053 237.04 248.688 236.816 249.456C236.603 250.213 236.496 251.115 236.496 252.16C236.496 253.195 236.603 254.096 236.816 254.864C237.04 255.621 237.344 256.251 237.728 256.752C238.123 257.253 238.581 257.627 239.104 257.872C239.627 258.107 240.192 258.224 240.8 258.224C241.408 258.224 241.973 258.107 242.496 257.872C243.019 257.627 243.472 257.253 243.856 256.752C244.24 256.251 244.544 255.621 244.768 254.864C244.992 254.096 245.104 253.195 245.104 252.16ZM243.632 252.16C243.632 253.067 243.552 253.835 243.392 254.464C243.243 255.083 243.035 255.584 242.768 255.968C242.512 256.352 242.213 256.629 241.872 256.8C241.531 256.96 241.173 257.04 240.8 257.04C240.427 257.04 240.069 256.96 239.728 256.8C239.387 256.629 239.088 256.352 238.832 255.968C238.576 255.584 238.368 255.083 238.208 254.464C238.059 253.835 237.984 253.067 237.984 252.16C237.984 251.243 238.059 250.475 238.208 249.856C238.368 249.227 238.576 248.725 238.832 248.352C239.088 247.968 239.387 247.696 239.728 247.536C240.069 247.365 240.427 247.28 240.8 247.28C241.173 247.28 241.531 247.365 241.872 247.536C242.213 247.696 242.512 247.968 242.768 248.352C243.035 248.725 243.243 249.227 243.392 249.856C243.552 250.475 243.632 251.243 243.632 252.16Z" fill="black"/>
<path d="M279.189 226V224.704H274.565C274.362 224.704 274.143 224.72 273.909 224.752C273.685 224.784 273.461 224.832 273.237 224.896L276.517 221.648C276.847 221.317 277.162 220.992 277.461 220.672C277.759 220.341 278.021 220.005 278.245 219.664C278.469 219.312 278.645 218.949 278.773 218.576C278.901 218.203 278.965 217.797 278.965 217.36C278.965 216.837 278.874 216.373 278.693 215.968C278.511 215.563 278.261 215.221 277.941 214.944C277.621 214.656 277.242 214.437 276.805 214.288C276.378 214.139 275.914 214.064 275.413 214.064C274.911 214.064 274.442 214.139 274.005 214.288C273.567 214.427 273.178 214.64 272.837 214.928C272.506 215.205 272.229 215.552 272.005 215.968C271.781 216.373 271.631 216.848 271.557 217.392L272.997 217.632C272.997 217.291 273.055 216.981 273.173 216.704C273.29 216.427 273.45 216.187 273.653 215.984C273.866 215.771 274.117 215.611 274.405 215.504C274.693 215.387 275.002 215.328 275.333 215.328C275.941 215.328 276.447 215.499 276.853 215.84C277.258 216.171 277.471 216.688 277.493 217.392C277.493 217.733 277.439 218.059 277.333 218.368C277.226 218.667 277.077 218.965 276.885 219.264C276.703 219.563 276.479 219.861 276.213 220.16C275.957 220.448 275.674 220.757 275.365 221.088L271.317 224.976V226H279.189ZM289.28 222.88V221.728H287.504V214.144H286.128L280.352 221.792V222.88H286.208V226H287.504V222.88H289.28ZM286.208 216.832V221.728H281.952L286.272 215.84C286.251 216.011 286.235 216.187 286.224 216.368C286.213 216.539 286.208 216.693 286.208 216.832Z" fill="black"/>
<path d="M271.605 249.424L273.061 249.664C273.061 249.333 273.119 249.029 273.237 248.752C273.354 248.475 273.514 248.235 273.717 248.032C273.919 247.819 274.165 247.653 274.453 247.536C274.741 247.419 275.05 247.36 275.381 247.36C275.999 247.36 276.501 247.525 276.885 247.856C277.279 248.187 277.477 248.688 277.477 249.36C277.477 249.659 277.429 249.936 277.333 250.192C277.237 250.448 277.077 250.672 276.853 250.864C276.629 251.045 276.335 251.189 275.973 251.296C275.621 251.403 275.189 251.461 274.677 251.472V252.528C275.306 252.528 275.818 252.587 276.213 252.704C276.607 252.811 276.917 252.96 277.141 253.152C277.365 253.344 277.514 253.573 277.589 253.84C277.674 254.107 277.717 254.4 277.717 254.72C277.717 254.976 277.663 255.237 277.557 255.504C277.461 255.771 277.306 256.011 277.093 256.224C276.89 256.437 276.629 256.613 276.309 256.752C275.999 256.88 275.637 256.944 275.221 256.944C274.613 256.944 274.117 256.8 273.733 256.512C273.349 256.213 273.034 255.808 272.789 255.296C272.661 254.987 272.581 254.747 272.549 254.576L271.237 255.12C271.375 255.547 271.541 255.952 271.733 256.336C271.935 256.709 272.191 257.035 272.501 257.312C272.81 257.589 273.183 257.808 273.621 257.968C274.069 258.128 274.607 258.208 275.237 258.208C275.781 258.208 276.293 258.128 276.773 257.968C277.263 257.797 277.685 257.563 278.037 257.264C278.399 256.955 278.682 256.581 278.885 256.144C279.098 255.707 279.205 255.221 279.205 254.688C279.205 253.952 279.007 253.344 278.613 252.864C278.218 252.384 277.637 252.048 276.869 251.856C277.509 251.643 278.01 251.328 278.373 250.912C278.746 250.485 278.933 249.888 278.933 249.12C278.933 248.672 278.847 248.261 278.677 247.888C278.506 247.515 278.266 247.195 277.957 246.928C277.647 246.661 277.279 246.453 276.853 246.304C276.437 246.155 275.973 246.08 275.461 246.08C274.959 246.08 274.49 246.155 274.053 246.304C273.615 246.453 273.226 246.672 272.885 246.96C272.554 247.237 272.277 247.584 272.053 248C271.829 248.416 271.679 248.891 271.605 249.424ZM288.416 258V256.816H286.112V246.208H284.944L281.792 248.928L282.576 249.872L284.704 247.968C284.693 248.021 284.688 248.08 284.688 248.144V256.816H282.08V258H288.416Z" fill="black"/>
</svg>
