<svg width="20" height="20" viewBox="0 0 20 20" fill="none" xmlns="http://www.w3.org/2000/svg">
<path fill-rule="evenodd" clip-rule="evenodd" d="M19.648 7.36258C19.9409 7.65548 19.9409 8.13035 19.648 8.42324L15.4053 12.6659C15.1124 12.9588 14.6376 12.9588 14.3447 12.6659C14.0518 12.373 14.0518 11.8981 14.3447 11.6052L18.5873 7.36258C18.8802 7.06969 19.3551 7.06969 19.648 7.36258Z" fill="#1C1B1E"/>
<path fill-rule="evenodd" clip-rule="evenodd" d="M14.3447 7.36258C14.6376 7.06969 15.1124 7.06969 15.4053 7.36258L19.648 11.6052C19.9409 11.8981 19.9409 12.373 19.648 12.6659C19.3551 12.9588 18.8802 12.9588 18.5873 12.6659L14.3447 8.42324C14.0518 8.13035 14.0518 7.65548 14.3447 7.36258Z" fill="#1C1B1E"/>
<path d="M10.75 0.75V18.75C7.25 18.75 4.64925 14.1695 4.64925 14.1695H1.75C1.19771 14.1695 0.75 13.7218 0.75 13.1695V6.2554C0.75 5.7031 1.19771 5.2554 1.75 5.2554H4.64925C4.64925 5.2554 7.25 0.75 10.75 0.75Z" fill="#1C1B1E"/>
<path fill-rule="evenodd" clip-rule="evenodd" d="M5.29861 5.63067C5.29867 5.63056 5.29874 5.63046 5.2988 5.63035L5.29861 5.63067ZM5.2988 5.63035L5.29896 5.63008L5.30283 5.62348L5.32154 5.59216C5.33883 5.56349 5.36567 5.51965 5.40162 5.46283C5.47359 5.34909 5.58176 5.18384 5.72279 4.98429C6.0058 4.58383 6.41619 4.05228 6.92663 3.52369C7.79051 2.6291 8.85105 1.83557 10 1.58329V17.915C8.85488 17.6585 7.7957 16.8537 6.93091 15.9433C6.42013 15.4055 6.00943 14.8647 5.72613 14.4572C5.58497 14.2541 5.47667 14.0859 5.40459 13.9701C5.36857 13.9122 5.34169 13.8676 5.32434 13.8383L5.30556 13.8063L5.30165 13.7996L5.30145 13.7992C5.30139 13.7991 5.30133 13.799 5.30127 13.7989C5.30125 13.7989 5.30123 13.7988 5.30121 13.7988C5.30119 13.7988 5.30117 13.7987 5.30115 13.7987C5.30113 13.7987 5.30111 13.7986 5.3011 13.7986C5.16776 13.5643 4.91889 13.4195 4.64925 13.4195H1.75C1.61192 13.4195 1.5 13.3076 1.5 13.1695V6.2554C1.5 6.11732 1.61192 6.0054 1.75 6.0054H4.64925C4.9171 6.0054 5.1646 5.86256 5.29861 5.63067M4.23053 14.9195C4.3027 15.0315 4.39099 15.1645 4.49448 15.3133C4.8082 15.7646 5.26643 16.3689 5.84334 16.9763C6.96786 18.1602 8.68033 19.5 10.75 19.5C11.1642 19.5 11.5 19.1642 11.5 18.75V0.75C11.5 0.335786 11.1642 0 10.75 0C8.68524 0 6.97393 1.31536 5.84762 2.48171C5.27037 3.07947 4.81182 3.67427 4.49782 4.11857C4.39452 4.26474 4.30634 4.39537 4.23419 4.5054H1.75C0.783509 4.5054 0 5.28888 0 6.2554V13.1695C0 14.1361 0.783509 14.9195 1.75 14.9195H4.23053Z" fill="#1C1B1E"/>
</svg>
