<svg width="22" height="20" viewBox="0 0 22 20" fill="none" xmlns="http://www.w3.org/2000/svg">
<path d="M10.9922 0C4.90721 0 0 3.86098 0 8.54825C0 11.5907 2.0414 14.2548 5.1035 15.7761L4.0671 19.5831C4.04755 19.6401 4.04455 19.7014 4.05842 19.76C4.07228 19.8187 4.10247 19.8723 4.14561 19.9151C4.20851 19.9696 4.28944 19.9998 4.37331 20C4.44284 19.9945 4.50881 19.9675 4.56174 19.9228L9.02141 16.9653C9.67972 17.0547 10.3433 17.101 11.0079 17.1042C17.0849 17.1042 22 13.2433 22 8.54825C22 3.85326 17.0692 0 10.9922 0Z" fill="black"/>
<path d="M3.84699 7.19686H2.64571C2.49682 7.20111 2.34977 7.1636 2.22173 7.08874C2.16488 7.05371 2.11601 7.00748 2.07818 6.953C2.04034 6.89852 2.01437 6.83693 2.00188 6.77211C1.99807 6.73101 1.99807 6.68972 2.00188 6.64863C1.99815 6.57172 2.01333 6.49503 2.04613 6.42513C2.07894 6.35523 2.1284 6.29416 2.19032 6.24706C2.3272 6.14957 2.49242 6.09806 2.66141 6.1003H6.28097C6.43105 6.09511 6.5791 6.13558 6.70495 6.21615C6.76314 6.24962 6.81304 6.29544 6.85106 6.35019C6.88908 6.40494 6.91426 6.46729 6.9248 6.53278C6.92863 6.57129 6.92863 6.61011 6.9248 6.64863C6.9285 6.72663 6.91335 6.80438 6.8806 6.87552C6.84784 6.94666 6.79841 7.0091 6.73636 7.05782C6.60281 7.1552 6.43919 7.20434 6.27312 7.19686H5.11109V11.2587C5.11581 11.3452 5.10219 11.4317 5.07111 11.5128C5.04002 11.5939 4.99214 11.6678 4.9305 11.7297C4.8714 11.7889 4.80035 11.8353 4.72192 11.8659C4.64349 11.8965 4.55942 11.9106 4.47511 11.9073C4.32766 11.9114 4.18333 11.8651 4.06684 11.7761C3.95593 11.6891 3.88066 11.5657 3.85485 11.4285C3.84709 11.3722 3.84709 11.315 3.85485 11.2587L3.84699 7.19686Z" fill="white"/>
<path d="M7.27175 6.4013C7.30628 6.27423 7.38738 6.16419 7.49944 6.0924C7.61885 6.02584 7.75491 5.99372 7.89202 5.99974H8.19038C8.33587 5.99461 8.47994 6.02937 8.60651 6.10013C8.74063 6.18883 8.83592 6.32389 8.87346 6.4785L10.4438 10.8415C10.4845 10.9553 10.5186 11.0714 10.5458 11.189C10.5485 11.2379 10.5485 11.2868 10.5458 11.3357C10.5485 11.411 10.5344 11.4859 10.5046 11.5552C10.4747 11.6246 10.4299 11.6867 10.3731 11.7373C10.3181 11.7927 10.2521 11.8364 10.1791 11.8656C10.1062 11.8949 10.0279 11.909 9.94912 11.9071C9.82802 11.919 9.7064 11.8904 9.60384 11.826C9.50129 11.7615 9.42378 11.665 9.38381 11.5519L9.05404 10.6021H6.98909L6.65933 11.5519C6.62033 11.6672 6.54188 11.7656 6.43737 11.8304C6.33285 11.8952 6.20873 11.9223 6.08617 11.9071C5.9534 11.9105 5.82335 11.8697 5.71714 11.7913C5.61367 11.7103 5.54385 11.595 5.52085 11.467C5.51669 11.4233 5.51669 11.3794 5.52085 11.3357C5.50737 11.259 5.50737 11.1807 5.52085 11.1041C5.52085 11.0191 5.57581 10.9264 5.60722 10.8415L7.27175 6.4013ZM8.0569 7.41293L7.311 9.72954H8.79494L8.0569 7.41293Z" fill="white"/>
<path d="M10.7253 6.64863C10.7173 6.47534 10.7794 6.30599 10.898 6.1776C10.9583 6.11778 11.0307 6.07104 11.1105 6.04044C11.1903 6.00985 11.2757 5.99601 11.3613 5.99991C11.5083 5.99822 11.6519 6.04441 11.7695 6.13122C11.8786 6.2218 11.951 6.3478 11.9737 6.4864C11.9814 6.54019 11.9814 6.59484 11.9737 6.64863V10.7104H14.1329C14.2825 10.7085 14.4296 10.7486 14.5568 10.8262C14.614 10.8608 14.6631 10.907 14.701 10.9615C14.7389 11.0161 14.7647 11.0778 14.7767 11.1428C14.7767 11.1428 14.7767 11.2201 14.7767 11.2587C14.7804 11.3356 14.7652 11.4122 14.7324 11.4821C14.6996 11.552 14.6502 11.6131 14.5882 11.6602C14.4514 11.7577 14.2861 11.8091 14.1172 11.8069H11.4633C11.2943 11.8176 11.1263 11.7743 10.9844 11.6834C10.8574 11.5901 10.7729 11.4514 10.7488 11.2973C10.7431 11.2125 10.7431 11.1273 10.7488 11.0424L10.7253 6.64863Z" fill="white"/>
<path d="M14.9182 6.64857C14.9135 6.47578 14.9751 6.3076 15.0909 6.17754C15.2086 6.07237 15.3595 6.01027 15.5183 6.00183C15.677 5.99339 15.8339 6.03908 15.9624 6.13116C16.0739 6.22094 16.149 6.34688 16.1744 6.48634C16.1783 6.54033 16.1783 6.59458 16.1744 6.64857V8.54043L18.1608 6.28556C18.2374 6.20864 18.3187 6.1365 18.4042 6.06942C18.4849 6.02219 18.5774 5.99804 18.6712 5.99985C18.8084 5.99911 18.9426 6.03954 19.0559 6.1157C19.1093 6.15105 19.1549 6.19667 19.19 6.24974C19.225 6.30281 19.2489 6.36227 19.2601 6.4246C19.2632 6.43989 19.2632 6.45569 19.2601 6.47098C19.2562 6.4888 19.2562 6.50717 19.2601 6.52499C19.2598 6.60625 19.2381 6.68609 19.1972 6.75669C19.1556 6.83144 19.1055 6.9013 19.0481 6.96511L17.7447 8.37057L19.315 10.7644V10.8416C19.3965 10.9522 19.4601 11.0748 19.5035 11.2046V11.2431C19.5125 11.3326 19.4994 11.4229 19.4652 11.5063C19.4311 11.5897 19.3768 11.6637 19.3072 11.7219C19.1762 11.8193 19.0159 11.8709 18.8518 11.8687C18.7427 11.8731 18.6344 11.8491 18.5377 11.7991C18.4331 11.7301 18.347 11.6375 18.2865 11.5289L16.8261 9.21224L16.1273 9.93044V11.22C16.132 11.3927 16.0703 11.5609 15.9546 11.691C15.8925 11.7506 15.8187 11.7972 15.7377 11.8278C15.6567 11.8583 15.5702 11.8722 15.4835 11.8687C15.3386 11.8717 15.1971 11.8252 15.083 11.7374C14.9721 11.6504 14.8969 11.5271 14.8711 11.3899C14.8633 11.3335 14.8633 11.2763 14.8711 11.22L14.9182 6.64857Z" fill="white"/>
</svg>
