<svg width="12" height="12" viewBox="0 0 12 12" fill="none" xmlns="http://www.w3.org/2000/svg">
<path fill-rule="evenodd" clip-rule="evenodd" d="M0.229221 0.229221C0.534848 -0.0764069 1.03037 -0.0764069 1.336 0.229221L11.7708 10.664C12.0764 10.9696 12.0764 11.4652 11.7708 11.7708C11.4652 12.0764 10.9696 12.0764 10.664 11.7708L0.229221 1.336C-0.0764069 1.03037 -0.0764069 0.534848 0.229221 0.229221Z" fill="#1C1B1E"/>
<path fill-rule="evenodd" clip-rule="evenodd" d="M11.7708 0.229221C12.0764 0.534848 12.0764 1.03037 11.7708 1.336L1.336 11.7708C1.03037 12.0764 0.534848 12.0764 0.229221 11.7708C-0.0764069 11.4652 -0.0764069 10.9696 0.229221 10.664L10.664 0.229221C10.9696 -0.0764069 11.4652 -0.0764069 11.7708 0.229221Z" fill="#1C1B1E"/>
</svg>
