<svg width="22" height="20" viewBox="0 0 22 20" fill="none" xmlns="http://www.w3.org/2000/svg">
<path d="M11 1V19C7.5 19 4.89925 14.4195 4.89925 14.4195H2C1.44771 14.4195 1 13.9718 1 13.4195V6.5054C1 5.9531 1.44771 5.5054 2 5.5054H4.89925C4.89925 5.5054 7.5 1 11 1Z" fill="#1C1B1E"/>
<path d="M11 1H11.75C11.75 0.585786 11.4142 0.25 11 0.25V1ZM11 19V19.75C11.4142 19.75 11.75 19.4142 11.75 19H11ZM4.89925 14.4195L5.55145 14.0492C5.4182 13.8145 5.16913 13.6695 4.89925 13.6695V14.4195ZM4.89925 5.5054V6.2554C5.16722 6.2554 5.41483 6.11243 5.5488 5.88035L4.89925 5.5054ZM10.25 1V19H11.75V1H10.25ZM11 18.25C9.56967 18.25 8.23176 17.2996 7.18091 16.1933C6.67013 15.6555 6.25943 15.1147 5.97613 14.7072C5.83497 14.5041 5.72667 14.3359 5.65459 14.2201C5.61857 14.1622 5.59169 14.1176 5.57434 14.0883C5.56567 14.0737 5.55939 14.063 5.55556 14.0563C5.55364 14.053 5.55234 14.0508 5.55165 14.0496C5.55131 14.049 5.55112 14.0486 5.55108 14.0486C5.55107 14.0486 5.55109 14.0486 5.55115 14.0487C5.55118 14.0488 5.55126 14.0489 5.55127 14.0489C5.55136 14.0491 5.55145 14.0492 4.89925 14.4195C4.24705 14.7899 4.24716 14.7901 4.24729 14.7903C4.24734 14.7904 4.24748 14.7906 4.24759 14.7908C4.24781 14.7912 4.24807 14.7917 4.24837 14.7922C4.24897 14.7932 4.24973 14.7946 4.25065 14.7962C4.25249 14.7994 4.25497 14.8037 4.25808 14.809C4.2643 14.8198 4.27305 14.8347 4.28428 14.8537C4.30674 14.8915 4.33915 14.9453 4.38109 15.0127C4.46491 15.1473 4.58714 15.337 4.74448 15.5633C5.0582 16.0146 5.51643 16.6189 6.09334 17.2263C7.21786 18.4102 8.93033 19.75 11 19.75V18.25ZM4.89925 13.6695H2V15.1695H4.89925V13.6695ZM2 13.6695C1.86192 13.6695 1.75 13.5576 1.75 13.4195H0.25C0.25 14.3861 1.03351 15.1695 2 15.1695V13.6695ZM1.75 13.4195V6.5054H0.25V13.4195H1.75ZM1.75 6.5054C1.75 6.36732 1.86192 6.2554 2 6.2554V4.7554C1.03351 4.7554 0.25 5.53888 0.25 6.5054H1.75ZM2 6.2554H4.89925V4.7554H2V6.2554ZM4.89925 5.5054C5.5488 5.88035 5.5487 5.88052 5.54861 5.88067C5.5486 5.8807 5.54852 5.88083 5.54849 5.88089C5.54842 5.881 5.5484 5.88104 5.54841 5.88102C5.54844 5.88097 5.54862 5.88066 5.54896 5.88008C5.54963 5.87892 5.55093 5.87671 5.55283 5.87348C5.55664 5.86702 5.56289 5.85649 5.57154 5.84216C5.58883 5.81349 5.61567 5.76965 5.65162 5.71283C5.72359 5.59909 5.83176 5.43384 5.97279 5.23429C6.2558 4.83383 6.66619 4.30228 7.17663 3.77369C8.2257 2.68734 9.56476 1.75 11 1.75V0.25C8.93524 0.25 7.22393 1.56536 6.09762 2.73171C5.52037 3.32947 5.06182 3.92427 4.74782 4.36857C4.59034 4.59141 4.46799 4.77813 4.38405 4.91079C4.34206 4.97716 4.3096 5.03012 4.28709 5.06745C4.27583 5.08611 4.26705 5.10088 4.2608 5.11147C4.25768 5.11676 4.25519 5.12102 4.25334 5.12419C4.25241 5.12578 4.25165 5.1271 4.25104 5.12814C4.25074 5.12866 4.25047 5.12912 4.25025 5.1295C4.25014 5.12969 4.25 5.12993 4.24995 5.13003C4.24982 5.13025 4.2497 5.13045 4.89925 5.5054Z" fill="#1C1B1E"/>
<path d="M15.4995 4.94058C15.1906 4.66469 14.7165 4.69149 14.4406 5.00045C14.1647 5.30941 14.1915 5.78353 14.5005 6.05942L15.4995 4.94058ZM15.8421 6.4294L16.4477 5.98705L16.4477 5.98704L15.8421 6.4294ZM15.8609 13.5447L16.4689 13.9838L16.4689 13.9837L15.8609 13.5447ZM14.5005 13.9406C14.1915 14.2165 14.1647 14.6906 14.4406 14.9995C14.7165 15.3085 15.1906 15.3353 15.4995 15.0594L14.5005 13.9406ZM14.5005 6.05942C14.7725 6.30239 15.0194 6.57472 15.2364 6.87176L16.4477 5.98704C16.1687 5.60498 15.8507 5.25411 15.4995 4.94058L14.5005 6.05942ZM15.2364 6.87175C15.8723 7.74238 16.25 8.82414 16.25 10H17.75C17.75 8.49816 17.2664 7.10802 16.4477 5.98705L15.2364 6.87175ZM16.25 10C16.25 11.1657 15.8788 12.2388 15.2529 13.1056L16.4689 13.9837C17.2747 12.8679 17.75 11.4888 17.75 10H16.25ZM15.2529 13.1055C15.032 13.4114 14.7795 13.6914 14.5005 13.9406L15.4995 15.0594C15.8596 14.7379 16.1848 14.3771 16.4689 13.9838L15.2529 13.1055Z" fill="#1C1B1E"/>
<path d="M15.7338 17.9488C15.3781 18.1611 15.2619 18.6216 15.4742 18.9772C15.6865 19.3329 16.1469 19.4492 16.5026 19.2369L15.7338 17.9488ZM16.6483 0.851713C16.2961 0.633797 15.8339 0.742703 15.6159 1.09496C15.398 1.44722 15.5069 1.90944 15.8592 2.12735L16.6483 0.851713ZM16.5026 19.2369C19.6437 17.3619 21.7502 13.9273 21.7502 10H20.2502C20.2502 13.3777 18.4403 16.3334 15.7338 17.9488L16.5026 19.2369ZM21.7502 10C21.7502 6.13372 19.7086 2.74489 16.6483 0.851713L15.8592 2.12735C18.4961 3.75862 20.2502 6.67479 20.2502 10H21.7502Z" fill="#1C1B1E"/>
</svg>
